<?xml version="1.0" encoding="UTF-8" standalone="no"?><!-- Generator: Gravit.io --><svg xmlns="http://www.w3.org/2000/svg" xmlns:xlink="http://www.w3.org/1999/xlink" style="isolation:isolate" viewBox="0 0 230 65" width="230pt" height="65pt"><defs><clipPath id="_clipPath_uyfZujgxSNTSRjHwzm1DUteZ0zOnPKjO"><rect width="230" height="65"/></clipPath></defs><g clip-path="url(#_clipPath_uyfZujgxSNTSRjHwzm1DUteZ0zOnPKjO)"><clipPath id="_clipPath_hyyO3kCCJiuDzH1uN65XjfYIqGbEF4sj"><rect x="0" y="0" width="230" height="65" transform="matrix(1,0,0,1,0,0)" fill="rgb(255,255,255)"/></clipPath><g clip-path="url(#_clipPath_hyyO3kCCJiuDzH1uN65XjfYIqGbEF4sj)"><g><g><rect x="4.25" y="8.5" width="217" height="53" transform="matrix(1,0,0,1,0,0)" fill="rgb(255,255,255)"/><rect x="8.75" y="3.5" width="217" height="53" transform="matrix(1,0,0,1,0,0)" fill="none" vector-effect="non-scaling-stroke" stroke-width="3" stroke="rgb(170,0,0)" stroke-linejoin="miter" stroke-linecap="square" stroke-miterlimit="2"/></g></g></g><path d=" M 118.041 30.258 L 118.041 30.258 L 118.041 41.572 L 118.041 41.572 Q 118.041 42.165 117.01 42.165 L 117.01 42.165 L 117.01 42.165 Q 115.979 42.165 115.979 41.572 L 115.979 41.572 L 115.979 30 L 115.979 30 Q 115.979 27.99 112.461 27.99 L 112.461 27.99 L 112.461 27.99 Q 108.943 27.99 108.943 30 L 108.943 30 L 108.943 41.572 L 108.943 41.572 Q 108.943 42.165 107.912 42.165 L 107.912 42.165 L 107.912 42.165 Q 106.881 42.165 106.881 41.572 L 106.881 41.572 L 106.881 30.258 L 106.881 30.258 Q 106.881 28.119 108.402 27.152 L 108.402 27.152 L 108.402 27.152 Q 109.923 26.186 112.448 26.186 L 112.448 26.186 L 112.448 26.186 Q 114.974 26.186 116.508 27.152 L 116.508 27.152 L 116.508 27.152 Q 118.041 28.119 118.041 30.258 Z  M 130.232 42.036 L 130.232 42.036 L 127.216 42.036 L 127.216 42.036 Q 124.948 42.036 123.943 41.108 L 123.943 41.108 L 123.943 41.108 Q 122.938 40.18 122.938 37.964 L 122.938 37.964 L 122.938 37.758 L 122.938 37.758 Q 122.938 35.567 123.84 34.742 L 123.84 34.742 L 123.84 34.742 Q 124.742 33.918 127.062 33.686 L 127.062 33.686 L 131.521 33.247 L 131.521 30.387 L 131.521 30.387 Q 131.521 28.376 128.015 28.376 L 128.015 28.376 L 124.485 28.376 L 124.485 28.376 Q 123.969 28.376 123.969 27.474 L 123.969 27.474 L 123.969 27.474 Q 123.969 26.572 124.485 26.572 L 124.485 26.572 L 128.015 26.572 L 128.015 26.572 Q 130.541 26.572 132.062 27.539 L 132.062 27.539 L 132.062 27.539 Q 133.582 28.505 133.582 30.644 L 133.582 30.644 L 133.582 38.247 L 133.582 38.247 Q 133.582 39.923 134.175 40.902 L 134.175 40.902 L 134.175 40.902 Q 134.356 41.211 134.356 41.289 L 134.356 41.289 L 134.356 41.289 Q 134.356 41.598 133.866 41.946 L 133.866 41.946 L 133.866 41.946 Q 133.376 42.294 133.041 42.294 L 133.041 42.294 L 133.041 42.294 Q 132.474 42.294 131.997 41.224 L 131.997 41.224 L 131.997 41.224 Q 131.521 40.155 131.521 38.505 L 131.521 38.505 L 131.521 35.052 L 127.216 35.49 L 127.216 35.49 Q 125.825 35.644 125.412 36.108 L 125.412 36.108 L 125.412 36.108 Q 125 36.572 125 37.758 L 125 37.758 L 125 37.964 L 125 37.964 Q 125 39.201 125.425 39.716 L 125.425 39.716 L 125.425 39.716 Q 125.851 40.232 127.216 40.232 L 127.216 40.232 L 130.232 40.232 L 130.232 40.232 Q 130.747 40.232 130.747 41.134 L 130.747 41.134 L 130.747 41.134 Q 130.747 42.036 130.232 42.036 Z  M 147.887 31.031 L 147.887 31.031 L 147.887 30.026 L 147.887 30.026 Q 147.887 27.99 144.562 27.99 L 144.562 27.99 L 144.562 27.99 Q 143.144 27.99 142.242 28.454 L 142.242 28.454 L 142.242 28.454 Q 141.34 28.918 141.34 29.923 L 141.34 29.923 L 141.34 30.49 L 141.34 30.49 Q 141.34 31.881 141.701 32.307 L 141.701 32.307 L 141.701 32.307 Q 142.062 32.732 143.247 33.015 L 143.247 33.015 L 145.49 33.582 L 145.49 33.582 Q 148.686 34.407 149.278 35.18 L 149.278 35.18 L 149.278 35.18 Q 150 36.134 150 37.706 L 150 37.706 L 150 38.634 L 150 38.634 Q 150 40.644 148.441 41.534 L 148.441 41.534 L 148.441 41.534 Q 146.881 42.423 144.407 42.423 L 144.407 42.423 L 144.407 42.423 Q 140.387 42.423 139.304 40.387 L 139.304 40.387 L 139.304 40.387 Q 138.866 39.536 138.866 38.325 L 138.866 38.325 L 138.866 37.5 L 138.866 37.5 Q 138.866 37.165 139.098 37.049 L 139.098 37.049 L 139.098 37.049 Q 139.33 36.933 139.897 36.933 L 139.897 36.933 L 139.897 36.933 Q 140.902 36.933 140.902 37.577 L 140.902 37.577 L 140.902 38.737 L 140.902 38.737 Q 140.902 39.768 141.804 40.193 L 141.804 40.193 L 141.804 40.193 Q 142.706 40.619 144.433 40.619 L 144.433 40.619 L 144.433 40.619 Q 147.964 40.619 147.964 38.814 L 147.964 38.814 L 147.964 37.448 L 147.964 37.448 Q 147.964 36.649 147.358 36.211 L 147.358 36.211 L 147.358 36.211 Q 146.753 35.773 145.284 35.387 L 145.284 35.387 L 143.015 34.82 L 143.015 34.82 Q 140.722 34.253 140.013 33.466 L 140.013 33.466 L 140.013 33.466 Q 139.304 32.68 139.304 30.412 L 139.304 30.412 L 139.304 30.103 L 139.304 30.103 Q 139.356 28.041 140.773 27.113 L 140.773 27.113 L 140.773 27.113 Q 142.191 26.186 144.51 26.186 L 144.51 26.186 L 144.51 26.186 Q 149.923 26.186 149.923 30.206 L 149.923 30.206 L 149.923 31.108 L 149.923 31.108 Q 149.923 31.649 148.905 31.649 L 148.905 31.649 L 148.905 31.649 Q 147.887 31.649 147.887 31.031 Z  M 91.933 26.649 L 91.933 26.649 L 91.933 38.351 L 91.933 38.351 Q 91.933 40.49 90.271 41.456 L 90.271 41.456 L 90.271 41.456 Q 88.608 42.423 85.876 42.423 L 85.876 42.423 L 85.876 42.423 Q 80 42.423 80 38.351 L 80 38.351 L 80 26.649 L 80 26.649 Q 80 24.51 81.662 23.544 L 81.662 23.544 L 81.662 23.544 Q 83.325 22.577 86.057 22.577 L 86.057 22.577 L 86.057 22.577 Q 91.933 22.577 91.933 26.649 Z  M 82.062 26.392 L 82.062 26.392 L 82.062 38.608 L 82.062 38.608 Q 82.062 40.619 85.966 40.619 L 85.966 40.619 L 85.966 40.619 Q 89.871 40.619 89.871 38.608 L 89.871 38.608 L 89.871 26.392 L 89.871 26.392 Q 89.871 24.381 85.966 24.381 L 85.966 24.381 L 85.966 24.381 Q 82.062 24.381 82.062 26.392 Z " fill="rgb(170,0,0)"/></g></svg>