<?xml version="1.0" encoding="UTF-8" standalone="no"?><!-- Generator: Gravit.io --><svg xmlns="http://www.w3.org/2000/svg" xmlns:xlink="http://www.w3.org/1999/xlink" style="isolation:isolate" viewBox="0 0 230 65" width="230pt" height="65pt"><defs><clipPath id="_clipPath_dyIZNsVNMarFnLJrE86bBuzkzngySOtB"><rect width="230" height="65"/></clipPath></defs><g clip-path="url(#_clipPath_dyIZNsVNMarFnLJrE86bBuzkzngySOtB)"><clipPath id="_clipPath_E7XRvVEi5QaLvfehCVEAUjLxlJUesMFV"><rect x="0" y="0" width="230" height="65" transform="matrix(1,0,0,1,0,0)" fill="rgb(255,255,255)"/></clipPath><g clip-path="url(#_clipPath_E7XRvVEi5QaLvfehCVEAUjLxlJUesMFV)"><g><clipPath id="_clipPath_9oM3O1oAveohomBJEpnvPlSTnFmnuIyS"><rect x="0" y="0" width="230" height="65" transform="matrix(1,0,0,1,0,0)" fill="rgb(255,255,255)"/></clipPath><g clip-path="url(#_clipPath_9oM3O1oAveohomBJEpnvPlSTnFmnuIyS)"><g><g><clipPath id="_clipPath_fGbLDW59hW4LNJjpRUuyOWdHLWLsWwck"><rect x="0" y="0" width="230" height="65" transform="matrix(1,0,0,1,0,0)" fill="rgb(255,255,255)"/></clipPath><g clip-path="url(#_clipPath_fGbLDW59hW4LNJjpRUuyOWdHLWLsWwck)"><g><g><g><g><rect x="4.25" y="8.5" width="217" height="53" transform="matrix(1,0,0,1,0,0)" fill="rgb(170,0,0)"/><rect x="8.75" y="3.5" width="217" height="53" transform="matrix(1,0,0,1,0,0)" fill="none" vector-effect="non-scaling-stroke" stroke-width="3" stroke="rgb(0,0,0)" stroke-opacity="1000000" stroke-linejoin="miter" stroke-linecap="square" stroke-miterlimit="2"/></g></g></g></g></g></g></g></g><path d=" M 84.512 26.576 L 84.512 26.576 L 84.512 37.472 L 84.512 37.472 Q 84.512 39.464 82.964 40.364 L 82.964 40.364 L 82.964 40.364 Q 81.416 41.264 78.872 41.264 L 78.872 41.264 L 78.872 41.264 Q 73.4 41.264 73.4 37.472 L 73.4 37.472 L 73.4 26.576 L 73.4 26.576 Q 73.4 24.584 74.948 23.684 L 74.948 23.684 L 74.948 23.684 Q 76.496 22.784 79.04 22.784 L 79.04 22.784 L 79.04 22.784 Q 84.512 22.784 84.512 26.576 Z  M 75.32 26.336 L 75.32 26.336 L 75.32 37.712 L 75.32 37.712 Q 75.32 39.584 78.956 39.584 L 78.956 39.584 L 78.956 39.584 Q 82.592 39.584 82.592 37.712 L 82.592 37.712 L 82.592 26.336 L 82.592 26.336 Q 82.592 24.464 78.956 24.464 L 78.956 24.464 L 78.956 24.464 Q 75.32 24.464 75.32 26.336 Z  M 88.832 26.504 L 88.832 26.504 L 90.512 26.504 L 90.512 25.136 L 90.512 25.136 Q 90.512 21.344 95.456 21.344 L 95.456 21.344 L 96.296 21.344 L 96.296 21.344 Q 96.776 21.344 96.776 22.184 L 96.776 22.184 L 96.776 22.184 Q 96.776 23.024 96.296 23.024 L 96.296 23.024 L 95.456 23.024 L 95.456 23.024 Q 92.432 23.024 92.432 24.896 L 92.432 24.896 L 92.432 26.504 L 95.192 26.504 L 95.192 26.504 Q 95.672 26.504 95.672 27.344 L 95.672 27.344 L 95.672 27.344 Q 95.672 28.184 95.192 28.184 L 95.192 28.184 L 92.432 28.184 L 92.432 43.376 L 92.432 43.376 Q 92.432 44.912 91.988 45.908 L 91.988 45.908 L 91.988 45.908 Q 91.544 46.904 91.016 46.904 L 91.016 46.904 L 91.016 46.904 Q 90.704 46.904 90.248 46.58 L 90.248 46.58 L 90.248 46.58 Q 89.792 46.256 89.792 45.968 L 89.792 45.968 L 89.792 45.968 Q 89.792 45.896 89.984 45.608 L 89.984 45.608 L 89.984 45.608 Q 90.512 44.696 90.512 43.136 L 90.512 43.136 L 90.512 28.184 L 88.832 28.184 L 88.832 28.184 Q 88.352 28.184 88.352 27.344 L 88.352 27.344 L 88.352 27.344 Q 88.352 26.504 88.832 26.504 Z  M 109.064 29.888 L 109.064 29.888 L 109.064 30.608 L 109.064 30.608 Q 109.064 32.648 108.224 33.416 L 108.224 33.416 L 108.224 33.416 Q 107.384 34.184 105.152 34.4 L 105.152 34.4 L 100.472 34.856 L 100.472 37.712 L 100.472 37.712 Q 100.472 39.584 103.592 39.584 L 103.592 39.584 L 103.592 39.584 Q 107.144 39.584 107.144 37.952 L 107.144 37.952 L 107.144 37.04 L 107.144 37.04 Q 107.144 36.488 108.104 36.488 L 108.104 36.488 L 108.104 36.488 Q 109.064 36.488 109.064 37.04 L 109.064 37.04 L 109.064 37.712 L 109.064 37.712 Q 109.064 41.264 103.784 41.264 L 103.784 41.264 L 103.784 41.264 Q 101.456 41.264 100.004 40.352 L 100.004 40.352 L 100.004 40.352 Q 98.552 39.44 98.552 37.472 L 98.552 37.472 L 98.552 29.936 L 98.552 29.936 Q 98.552 27.944 100.088 27.044 L 100.088 27.044 L 100.088 27.044 Q 101.624 26.144 104.096 26.144 L 104.096 26.144 L 104.096 26.144 Q 106.568 26.144 107.816 27.008 L 107.816 27.008 L 107.816 27.008 Q 109.064 27.872 109.064 29.888 Z  M 100.472 29.696 L 100.472 29.696 L 100.472 33.176 L 104.984 32.72 L 104.984 32.72 Q 106.352 32.576 106.748 32.144 L 106.748 32.144 L 106.748 32.144 Q 107.144 31.712 107.144 30.608 L 107.144 30.608 L 107.144 29.696 L 107.144 29.696 Q 107.144 27.824 103.808 27.824 L 103.808 27.824 L 103.808 27.824 Q 100.472 27.824 100.472 29.696 Z  M 120.488 30.896 L 120.488 30.896 L 120.488 29.696 L 120.488 29.696 Q 120.488 27.824 118.256 27.824 L 118.256 27.824 L 118.256 27.824 Q 116.024 27.824 116.024 29.696 L 116.024 29.696 L 116.024 40.712 L 116.024 40.712 Q 116.024 41.264 115.064 41.264 L 115.064 41.264 L 115.064 41.264 Q 114.104 41.264 114.104 40.712 L 114.104 40.712 L 114.104 29.936 L 114.104 29.936 Q 114.104 27.944 115.244 27.044 L 115.244 27.044 L 115.244 27.044 Q 116.384 26.144 118.256 26.144 L 118.256 26.144 L 118.256 26.144 Q 122.408 26.144 122.408 29.888 L 122.408 29.888 L 122.408 30.896 L 122.408 30.896 Q 122.408 31.448 121.448 31.448 L 121.448 31.448 L 121.448 31.448 Q 120.488 31.448 120.488 30.896 Z  M 128.408 23.696 L 128.408 23.696 L 128.408 26.504 L 130.928 26.504 L 130.928 26.504 Q 131.408 26.504 131.408 27.344 L 131.408 27.344 L 131.408 27.344 Q 131.408 28.184 130.928 28.184 L 130.928 28.184 L 128.408 28.184 L 128.408 38.096 L 128.408 38.096 Q 128.408 38.864 128.768 39.524 L 128.768 39.524 L 128.768 39.524 Q 129.128 40.184 129.128 40.208 L 129.128 40.208 L 129.128 40.208 Q 129.128 40.496 128.672 40.82 L 128.672 40.82 L 128.672 40.82 Q 128.216 41.144 127.904 41.144 L 127.904 41.144 L 127.904 41.144 Q 127.4 41.144 126.944 40.268 L 126.944 40.268 L 126.944 40.268 Q 126.488 39.392 126.488 38.336 L 126.488 38.336 L 126.488 28.184 L 124.568 28.184 L 124.568 28.184 Q 124.088 28.184 124.088 27.344 L 124.088 27.344 L 124.088 27.344 Q 124.088 26.504 124.568 26.504 L 124.568 26.504 L 126.488 26.504 L 126.488 23.696 L 126.488 23.696 Q 126.488 23.144 127.448 23.144 L 127.448 23.144 L 127.448 23.144 Q 128.408 23.144 128.408 23.696 Z  M 140.84 40.904 L 140.84 40.904 L 138.032 40.904 L 138.032 40.904 Q 135.92 40.904 134.984 40.04 L 134.984 40.04 L 134.984 40.04 Q 134.048 39.176 134.048 37.112 L 134.048 37.112 L 134.048 36.92 L 134.048 36.92 Q 134.048 34.88 134.888 34.112 L 134.888 34.112 L 134.888 34.112 Q 135.728 33.344 137.888 33.128 L 137.888 33.128 L 142.04 32.72 L 142.04 30.056 L 142.04 30.056 Q 142.04 28.184 138.776 28.184 L 138.776 28.184 L 135.488 28.184 L 135.488 28.184 Q 135.008 28.184 135.008 27.344 L 135.008 27.344 L 135.008 27.344 Q 135.008 26.504 135.488 26.504 L 135.488 26.504 L 138.776 26.504 L 138.776 26.504 Q 141.128 26.504 142.544 27.404 L 142.544 27.404 L 142.544 27.404 Q 143.96 28.304 143.96 30.296 L 143.96 30.296 L 143.96 37.376 L 143.96 37.376 Q 143.96 38.936 144.512 39.848 L 144.512 39.848 L 144.512 39.848 Q 144.68 40.136 144.68 40.208 L 144.68 40.208 L 144.68 40.208 Q 144.68 40.496 144.224 40.82 L 144.224 40.82 L 144.224 40.82 Q 143.768 41.144 143.456 41.144 L 143.456 41.144 L 143.456 41.144 Q 142.928 41.144 142.484 40.148 L 142.484 40.148 L 142.484 40.148 Q 142.04 39.152 142.04 37.616 L 142.04 37.616 L 142.04 34.4 L 138.032 34.808 L 138.032 34.808 Q 136.736 34.952 136.352 35.384 L 136.352 35.384 L 136.352 35.384 Q 135.968 35.816 135.968 36.92 L 135.968 36.92 L 135.968 37.112 L 135.968 37.112 Q 135.968 38.264 136.364 38.744 L 136.364 38.744 L 136.364 38.744 Q 136.76 39.224 138.032 39.224 L 138.032 39.224 L 140.84 39.224 L 140.84 39.224 Q 141.32 39.224 141.32 40.064 L 141.32 40.064 L 141.32 40.064 Q 141.32 40.904 140.84 40.904 Z " fill-rule="evenodd" fill="rgb(255,255,255)"/></g></g></g></svg>