<?xml version="1.0" encoding="UTF-8" standalone="no"?><!-- Generator: Gravit.io --><svg xmlns="http://www.w3.org/2000/svg" xmlns:xlink="http://www.w3.org/1999/xlink" style="isolation:isolate" viewBox="0 0 230 65" width="230pt" height="65pt"><defs><clipPath id="_clipPath_n9VjmXbmIS0bbfKfrIcWVH127d12omWi"><rect width="230" height="65"/></clipPath></defs><g clip-path="url(#_clipPath_n9VjmXbmIS0bbfKfrIcWVH127d12omWi)"><g><rect x="4.25" y="8.5" width="217" height="53" transform="matrix(1,0,0,1,0,0)" fill="rgb(255,255,255)"/><rect x="8.75" y="3.5" width="217" height="53" transform="matrix(1,0,0,1,0,0)" fill="none" vector-effect="non-scaling-stroke" stroke-width="3" stroke="rgb(227,0,0)" stroke-linejoin="miter" stroke-linecap="square" stroke-miterlimit="2"/></g><path d=" M 115.477 37.049 L 115.369 37.049 L 115.369 28.885 L 115.369 28.885 Q 115.369 27.112 116.701 25.802 L 116.701 25.802 L 116.701 25.802 Q 117.947 24.588 119.827 24.588 L 119.827 24.588 L 121.277 24.588 L 121.277 24.695 L 120.418 26.5 L 119.827 26.5 L 119.827 26.5 Q 118.86 26.5 118.189 27.075 L 118.189 27.075 L 118.189 27.075 Q 117.518 27.649 117.518 28.885 L 117.518 28.885 L 117.518 28.885 Q 117.518 28.885 117.518 36.082 L 117.518 36.082 L 115.477 37.049 L 115.477 37.049 Z  M 131.912 31.86 L 132.02 31.86 L 132.02 32.537 L 132.02 32.537 Q 132.02 34.31 130.688 35.62 L 130.688 35.62 L 130.688 35.62 Q 129.441 36.834 127.562 36.834 L 127.562 36.834 L 127.562 36.834 Q 125.703 36.834 124.436 35.62 L 124.436 35.62 L 124.436 35.62 Q 123.104 34.331 123.104 32.537 L 123.104 32.537 L 123.104 28.885 L 123.104 28.885 Q 123.104 27.112 124.436 25.802 L 124.436 25.802 L 124.436 25.802 Q 125.682 24.588 127.562 24.588 L 127.562 24.588 L 127.562 24.588 Q 129.388 24.588 130.688 25.802 L 130.688 25.802 L 130.688 25.802 Q 132.02 27.048 132.02 28.573 L 132.02 28.573 L 132.02 28.595 L 125.467 33.729 L 125.467 33.729 Q 125.628 34.095 125.918 34.342 L 125.918 34.342 L 125.918 34.342 Q 126.595 34.922 127.562 34.922 L 127.562 34.922 L 127.562 34.922 Q 128.528 34.922 129.2 34.342 L 129.2 34.342 L 129.2 34.342 Q 129.871 33.762 129.871 32.827 L 129.871 32.827 L 131.912 31.86 L 131.912 31.86 Z  M 125.252 28.885 L 125.252 31.56 L 129.742 27.918 L 129.742 27.918 Q 129.57 27.392 129.205 27.08 L 129.205 27.08 L 129.205 27.08 Q 128.528 26.5 127.562 26.5 L 127.562 26.5 L 127.562 26.5 Q 126.595 26.5 125.923 27.075 L 125.923 27.075 L 125.923 27.075 Q 125.252 27.649 125.252 28.885 L 125.252 28.885 L 125.252 28.885 Z  M 143.406 28.885 L 143.406 36.082 L 141.365 37.049 L 141.258 37.049 L 141.258 35.921 L 141.258 35.921 Q 140.398 36.834 138.948 36.834 L 138.948 36.834 L 138.948 36.834 Q 136.939 36.834 135.822 35.62 L 135.822 35.62 L 135.822 35.62 Q 134.705 34.406 134.705 32.752 L 134.705 32.752 L 134.705 32.752 Q 134.705 31.033 135.919 29.83 L 135.919 29.83 L 135.919 29.83 Q 137.09 28.67 138.948 28.67 L 138.948 28.67 L 138.948 28.67 Q 140.27 28.67 141.258 29.583 L 141.258 29.583 L 141.258 29.583 Q 141.258 27.682 140.592 27.08 L 140.592 27.08 L 140.592 27.08 Q 139.947 26.5 138.948 26.5 L 138.948 26.5 L 136.338 26.5 L 136.338 26.393 L 137.197 24.588 L 138.948 24.588 L 138.948 24.588 Q 140.828 24.588 142.074 25.802 L 142.074 25.802 L 142.074 25.802 Q 143.406 27.102 143.406 28.885 L 143.406 28.885 L 143.406 28.885 Z  M 136.811 32.752 L 136.811 32.752 L 136.811 32.752 Q 136.811 33.708 137.391 34.331 L 137.391 34.331 L 137.391 34.331 Q 137.949 34.933 138.959 34.933 L 138.959 34.933 L 138.959 34.933 Q 140.012 34.933 140.592 34.32 L 140.592 34.32 L 140.592 34.32 Q 141.236 33.633 141.236 32.773 L 141.236 32.773 L 141.236 32.773 Q 141.236 31.807 140.57 31.205 L 140.57 31.205 L 140.57 31.205 Q 139.904 30.604 138.97 30.604 L 138.97 30.604 L 138.97 30.604 Q 137.992 30.604 137.401 31.237 L 137.401 31.237 L 137.401 31.237 Q 136.811 31.871 136.811 32.752 Z  M 147.273 37.049 L 147.166 37.049 L 147.166 20.936 L 149.207 19.969 L 149.314 19.969 L 149.314 36.082 L 147.273 37.049 L 147.273 37.049 Z  M 153.772 22.429 L 153.772 22.429 L 153.772 22.429 Q 153.396 22.042 153.396 21.5 L 153.396 21.5 L 153.396 21.5 Q 153.396 20.957 153.772 20.57 L 153.772 20.57 L 153.772 20.57 Q 154.148 20.184 154.686 20.184 L 154.686 20.184 L 154.686 20.184 Q 155.223 20.184 155.599 20.57 L 155.599 20.57 L 155.599 20.57 Q 155.975 20.957 155.975 21.5 L 155.975 21.5 L 155.975 21.5 Q 155.975 22.042 155.599 22.429 L 155.599 22.429 L 155.599 22.429 Q 155.223 22.815 154.686 22.815 L 154.686 22.815 L 154.686 22.815 Q 154.148 22.815 153.772 22.429 Z  M 153.719 37.049 L 153.611 37.049 L 153.611 25.34 L 155.652 24.373 L 155.76 24.373 L 155.76 36.082 L 153.719 37.049 L 153.719 37.049 Z  M 167.275 36.619 L 158.982 36.619 L 158.982 36.512 L 164.601 26.758 L 159.09 26.758 L 159.09 26.65 L 159.96 24.803 L 168.038 24.803 L 168.038 24.91 L 162.431 34.664 L 168.146 34.664 L 168.146 34.771 L 167.275 36.619 L 167.275 36.619 Z  M 178.458 28.885 L 178.458 36.082 L 176.417 37.049 L 176.31 37.049 L 176.31 35.921 L 176.31 35.921 Q 175.45 36.834 174 36.834 L 174 36.834 L 174 36.834 Q 171.991 36.834 170.874 35.62 L 170.874 35.62 L 170.874 35.62 Q 169.757 34.406 169.757 32.752 L 169.757 32.752 L 169.757 32.752 Q 169.757 31.033 170.971 29.83 L 170.971 29.83 L 170.971 29.83 Q 172.142 28.67 174 28.67 L 174 28.67 L 174 28.67 Q 175.321 28.67 176.31 29.583 L 176.31 29.583 L 176.31 29.583 Q 176.31 27.682 175.644 27.08 L 175.644 27.08 L 175.644 27.08 Q 174.999 26.5 174 26.5 L 174 26.5 L 171.39 26.5 L 171.39 26.393 L 172.249 24.588 L 174 24.588 L 174 24.588 Q 175.88 24.588 177.126 25.802 L 177.126 25.802 L 177.126 25.802 Q 178.458 27.102 178.458 28.885 L 178.458 28.885 L 178.458 28.885 Z  M 171.862 32.752 L 171.862 32.752 L 171.862 32.752 Q 171.862 33.708 172.442 34.331 L 172.442 34.331 L 172.442 34.331 Q 173.001 34.933 174.011 34.933 L 174.011 34.933 L 174.011 34.933 Q 175.063 34.933 175.644 34.32 L 175.644 34.32 L 175.644 34.32 Q 176.288 33.633 176.288 32.773 L 176.288 32.773 L 176.288 32.773 Q 176.288 31.807 175.622 31.205 L 175.622 31.205 L 175.622 31.205 Q 174.956 30.604 174.021 30.604 L 174.021 30.604 L 174.021 30.604 Q 173.044 30.604 172.453 31.237 L 172.453 31.237 L 172.453 31.237 Q 171.862 31.871 171.862 32.752 Z  M 190.489 31.86 L 190.597 31.86 L 190.597 32.537 L 190.597 32.537 Q 190.597 34.31 189.265 35.62 L 189.265 35.62 L 189.265 35.62 Q 188.019 36.834 186.139 36.834 L 186.139 36.834 L 186.139 36.834 Q 184.28 36.834 183.013 35.62 L 183.013 35.62 L 183.013 35.62 Q 181.681 34.331 181.681 32.537 L 181.681 32.537 L 181.681 28.885 L 181.681 28.885 Q 181.681 27.102 183.013 25.802 L 183.013 25.802 L 183.013 25.802 Q 184.259 24.588 186.139 24.588 L 186.139 24.588 L 186.139 24.588 Q 187.976 24.588 189.265 25.802 L 189.265 25.802 L 189.265 25.802 Q 190.597 27.059 190.597 28.573 L 190.597 28.573 L 190.597 28.595 L 188.556 29.562 L 188.448 29.562 L 188.448 28.885 L 188.448 28.885 Q 188.448 27.649 187.777 27.075 L 187.777 27.075 L 187.777 27.075 Q 187.105 26.5 186.139 26.5 L 186.139 26.5 L 186.139 26.5 Q 185.172 26.5 184.5 27.075 L 184.5 27.075 L 184.5 27.075 Q 183.829 27.649 183.829 28.885 L 183.829 28.885 L 183.829 32.537 L 183.829 32.537 Q 183.829 33.772 184.5 34.347 L 184.5 34.347 L 184.5 34.347 Q 185.172 34.922 186.139 34.922 L 186.139 34.922 L 186.139 34.922 Q 187.105 34.922 187.777 34.342 L 187.777 34.342 L 187.777 34.342 Q 188.448 33.762 188.448 32.827 L 188.448 32.827 L 190.489 31.86 L 190.489 31.86 Z  M 194.518 22.429 L 194.518 22.429 L 194.518 22.429 Q 194.142 22.042 194.142 21.5 L 194.142 21.5 L 194.142 21.5 Q 194.142 20.957 194.518 20.57 L 194.518 20.57 L 194.518 20.57 Q 194.894 20.184 195.431 20.184 L 195.431 20.184 L 195.431 20.184 Q 195.968 20.184 196.344 20.57 L 196.344 20.57 L 196.344 20.57 Q 196.72 20.957 196.72 21.5 L 196.72 21.5 L 196.72 21.5 Q 196.72 22.042 196.344 22.429 L 196.344 22.429 L 196.344 22.429 Q 195.968 22.815 195.431 22.815 L 195.431 22.815 L 195.431 22.815 Q 194.894 22.815 194.518 22.429 Z  M 192.047 41.453 L 192.047 41.453 L 192.047 41.346 L 192.96 39.391 L 192.96 39.391 Q 193.368 39.229 193.69 38.961 L 193.69 38.961 L 193.69 38.961 Q 194.356 38.381 194.356 37.156 L 194.356 37.156 L 194.356 25.34 L 196.397 24.373 L 196.505 24.373 L 196.505 37.156 L 196.505 37.156 Q 196.505 38.929 195.173 40.239 L 195.173 40.239 L 195.173 40.239 Q 193.927 41.453 192.047 41.453 Z  M 209.073 31.86 L 209.181 31.86 L 209.181 32.537 L 209.181 32.537 Q 209.181 34.31 207.849 35.62 L 207.849 35.62 L 207.849 35.62 Q 206.603 36.834 204.723 36.834 L 204.723 36.834 L 204.723 36.834 Q 202.864 36.834 201.597 35.62 L 201.597 35.62 L 201.597 35.62 Q 200.265 34.331 200.265 32.537 L 200.265 32.537 L 200.265 28.885 L 200.265 28.885 Q 200.265 27.112 201.597 25.802 L 201.597 25.802 L 201.597 25.802 Q 202.843 24.588 204.723 24.588 L 204.723 24.588 L 204.723 24.588 Q 206.549 24.588 207.849 25.802 L 207.849 25.802 L 207.849 25.802 Q 209.181 27.048 209.181 28.573 L 209.181 28.573 L 209.181 28.595 L 202.628 33.729 L 202.628 33.729 Q 202.789 34.095 203.079 34.342 L 203.079 34.342 L 203.079 34.342 Q 203.756 34.922 204.723 34.922 L 204.723 34.922 L 204.723 34.922 Q 205.689 34.922 206.361 34.342 L 206.361 34.342 L 206.361 34.342 Q 207.032 33.762 207.032 32.827 L 207.032 32.827 L 209.073 31.86 L 209.073 31.86 Z  M 202.413 28.885 L 202.413 31.56 L 206.903 27.918 L 206.903 27.918 Q 206.731 27.392 206.366 27.08 L 206.366 27.08 L 206.366 27.08 Q 205.689 26.5 204.723 26.5 L 204.723 26.5 L 204.723 26.5 Q 203.756 26.5 203.084 27.075 L 203.084 27.075 L 203.084 27.075 Q 202.413 27.649 202.413 28.885 L 202.413 28.885 L 202.413 28.885 Z  M 24.297 25.555 L 24.297 31.463 L 24.297 31.463 Q 24.297 32.902 25.07 33.794 L 25.07 33.794 L 25.07 33.794 Q 26.026 34.9 27.573 34.9 L 27.573 34.9 L 27.573 34.9 Q 29.12 34.9 30.076 33.794 L 30.076 33.794 L 30.076 33.794 Q 30.85 32.902 30.85 31.463 L 30.85 31.463 L 30.85 25.555 L 30.85 25.555 Q 30.85 24.115 30.076 23.224 L 30.076 23.224 L 30.076 23.224 Q 29.12 22.117 27.573 22.117 L 27.573 22.117 L 27.573 22.117 Q 26.026 22.117 25.07 23.224 L 25.07 23.224 L 25.07 23.224 Q 24.297 24.115 24.297 25.555 L 24.297 25.555 L 24.297 25.555 Z  M 22.148 31.463 L 22.148 31.463 L 22.148 25.555 L 22.148 25.555 Q 22.148 23.224 23.599 21.741 L 23.599 21.741 L 23.599 21.741 Q 25.124 20.184 27.573 20.184 L 27.573 20.184 L 27.573 20.184 Q 30.022 20.184 31.548 21.741 L 31.548 21.741 L 31.548 21.741 Q 32.998 23.213 32.998 25.555 L 32.998 25.555 L 32.998 31.463 L 32.998 31.463 Q 32.998 33.794 31.548 35.276 L 31.548 35.276 L 31.548 35.276 Q 30.022 36.834 27.573 36.834 L 27.573 36.834 L 27.573 36.834 Q 25.124 36.834 23.599 35.276 L 23.599 35.276 L 23.599 35.276 Q 22.148 33.794 22.148 31.463 Z  M 36.436 32.827 L 36.436 32.827 L 38.477 31.86 L 38.584 31.86 L 38.584 32.72 L 38.584 32.72 Q 38.584 33.923 39.282 34.546 L 39.282 34.546 L 39.282 34.546 Q 39.948 35.137 40.894 35.137 L 40.894 35.137 L 40.894 35.137 Q 41.989 35.137 42.602 34.438 L 42.602 34.438 L 42.602 34.438 Q 43.246 33.708 43.246 32.849 L 43.246 32.849 L 43.246 32.849 Q 43.246 31.925 42.559 31.388 L 42.559 31.388 L 42.559 31.388 Q 41.968 30.926 40.883 30.926 L 40.883 30.926 L 40.883 30.926 Q 38.971 30.926 37.864 30.088 L 37.864 30.088 L 37.864 30.088 Q 36.887 29.357 36.887 27.821 L 36.887 27.821 L 36.887 27.821 Q 36.887 26.328 38.251 25.351 L 38.251 25.351 L 38.251 25.351 Q 39.314 24.588 40.894 24.588 L 40.894 24.588 L 40.894 24.588 Q 42.408 24.588 43.525 25.533 L 43.525 25.533 L 43.525 25.533 Q 44.385 26.274 44.589 27.252 L 44.589 27.252 L 42.548 28.219 L 42.44 28.219 L 42.44 27.907 L 42.44 27.907 Q 42.44 27.349 42.118 26.951 L 42.118 26.951 L 42.118 26.951 Q 41.603 26.285 40.646 26.285 L 40.646 26.285 L 40.646 26.285 Q 39.884 26.285 39.406 26.763 L 39.406 26.763 L 39.406 26.763 Q 38.928 27.241 38.928 27.821 L 38.928 27.821 L 38.928 27.821 Q 38.928 28.509 39.508 28.917 L 39.508 28.917 L 39.508 28.917 Q 39.83 29.143 40.883 29.143 L 40.883 29.143 L 40.883 29.143 Q 43.063 29.143 44.159 30.142 L 44.159 30.142 L 44.159 30.142 Q 45.352 31.227 45.352 32.967 L 45.352 32.967 L 45.352 32.967 Q 45.352 34.363 44.116 35.631 L 44.116 35.631 L 44.116 35.631 Q 42.945 36.834 40.894 36.834 L 40.894 36.834 L 40.894 36.834 Q 39.035 36.834 37.768 35.803 L 37.768 35.803 L 37.768 35.803 Q 36.436 34.718 36.436 32.827 Z  M 49.777 37.049 L 49.67 37.049 L 49.67 26.758 L 46.909 26.758 L 46.909 26.65 L 47.779 24.803 L 49.67 24.803 L 49.67 20.936 L 51.711 19.969 L 51.818 19.969 L 51.818 24.803 L 54.579 24.803 L 54.579 24.91 L 53.709 26.758 L 51.818 26.758 L 51.818 36.082 L 49.777 37.049 L 49.777 37.049 Z  M 64.623 28.885 L 64.623 36.082 L 62.582 37.049 L 62.475 37.049 L 62.475 35.921 L 62.475 35.921 Q 61.615 36.834 60.165 36.834 L 60.165 36.834 L 60.165 36.834 Q 58.156 36.834 57.039 35.62 L 57.039 35.62 L 57.039 35.62 Q 55.922 34.406 55.922 32.752 L 55.922 32.752 L 55.922 32.752 Q 55.922 31.033 57.136 29.83 L 57.136 29.83 L 57.136 29.83 Q 58.307 28.67 60.165 28.67 L 60.165 28.67 L 60.165 28.67 Q 61.486 28.67 62.475 29.583 L 62.475 29.583 L 62.475 29.583 Q 62.475 27.682 61.809 27.08 L 61.809 27.08 L 61.809 27.08 Q 61.164 26.5 60.165 26.5 L 60.165 26.5 L 57.555 26.5 L 57.555 26.393 L 58.414 24.588 L 60.165 24.588 L 60.165 24.588 Q 62.045 24.588 63.291 25.802 L 63.291 25.802 L 63.291 25.802 Q 64.623 27.102 64.623 28.885 L 64.623 28.885 L 64.623 28.885 Z  M 58.027 32.752 L 58.027 32.752 L 58.027 32.752 Q 58.027 33.708 58.607 34.331 L 58.607 34.331 L 58.607 34.331 Q 59.166 34.933 60.176 34.933 L 60.176 34.933 L 60.176 34.933 Q 61.229 34.933 61.809 34.32 L 61.809 34.32 L 61.809 34.32 Q 62.453 33.633 62.453 32.773 L 62.453 32.773 L 62.453 32.773 Q 62.453 31.807 61.787 31.205 L 61.787 31.205 L 61.787 31.205 Q 61.121 30.604 60.187 30.604 L 60.187 30.604 L 60.187 30.604 Q 59.209 30.604 58.618 31.237 L 58.618 31.237 L 58.618 31.237 Q 58.027 31.871 58.027 32.752 Z  M 69.371 37.049 L 69.264 37.049 L 69.264 26.758 L 66.503 26.758 L 66.503 26.65 L 67.373 24.803 L 69.264 24.803 L 69.264 20.936 L 71.305 19.969 L 71.412 19.969 L 71.412 24.803 L 74.173 24.803 L 74.173 24.91 L 73.303 26.758 L 71.412 26.758 L 71.412 36.082 L 69.371 37.049 L 69.371 37.049 Z  M 76.16 37.049 L 76.053 37.049 L 76.053 28.885 L 76.053 28.885 Q 76.053 27.112 77.385 25.802 L 77.385 25.802 L 77.385 25.802 Q 78.631 24.588 80.511 24.588 L 80.511 24.588 L 80.511 24.588 Q 82.369 24.588 83.637 25.802 L 83.637 25.802 L 83.637 25.802 Q 84.969 27.091 84.969 28.885 L 84.969 28.885 L 84.969 36.082 L 82.928 37.049 L 82.82 37.049 L 82.82 28.885 L 82.82 28.885 Q 82.82 27.649 82.149 27.075 L 82.149 27.075 L 82.149 27.075 Q 81.478 26.5 80.511 26.5 L 80.511 26.5 L 80.511 26.5 Q 79.544 26.5 78.873 27.075 L 78.873 27.075 L 78.873 27.075 Q 78.201 27.649 78.201 28.885 L 78.201 28.885 L 78.201 36.082 L 76.16 37.049 L 76.16 37.049 Z  M 88.89 22.429 L 88.89 22.429 L 88.89 22.429 Q 88.514 22.042 88.514 21.5 L 88.514 21.5 L 88.514 21.5 Q 88.514 20.957 88.89 20.57 L 88.89 20.57 L 88.89 20.57 Q 89.266 20.184 89.803 20.184 L 89.803 20.184 L 89.803 20.184 Q 90.34 20.184 90.716 20.57 L 90.716 20.57 L 90.716 20.57 Q 91.092 20.957 91.092 21.5 L 91.092 21.5 L 91.092 21.5 Q 91.092 22.042 90.716 22.429 L 90.716 22.429 L 90.716 22.429 Q 90.34 22.815 89.803 22.815 L 89.803 22.815 L 89.803 22.815 Q 89.266 22.815 88.89 22.429 Z  M 88.836 37.049 L 88.729 37.049 L 88.729 25.34 L 90.77 24.373 L 90.877 24.373 L 90.877 36.082 L 88.836 37.049 L 88.836 37.049 Z  M 103.445 31.86 L 103.553 31.86 L 103.553 32.537 L 103.553 32.537 Q 103.553 34.31 102.221 35.62 L 102.221 35.62 L 102.221 35.62 Q 100.975 36.834 99.095 36.834 L 99.095 36.834 L 99.095 36.834 Q 97.236 36.834 95.969 35.62 L 95.969 35.62 L 95.969 35.62 Q 94.637 34.331 94.637 32.537 L 94.637 32.537 L 94.637 28.885 L 94.637 28.885 Q 94.637 27.112 95.969 25.802 L 95.969 25.802 L 95.969 25.802 Q 97.215 24.588 99.095 24.588 L 99.095 24.588 L 99.095 24.588 Q 100.921 24.588 102.221 25.802 L 102.221 25.802 L 102.221 25.802 Q 103.553 27.048 103.553 28.573 L 103.553 28.573 L 103.553 28.595 L 97 33.729 L 97 33.729 Q 97.161 34.095 97.451 34.342 L 97.451 34.342 L 97.451 34.342 Q 98.128 34.922 99.095 34.922 L 99.095 34.922 L 99.095 34.922 Q 100.062 34.922 100.733 34.342 L 100.733 34.342 L 100.733 34.342 Q 101.404 33.762 101.404 32.827 L 101.404 32.827 L 103.445 31.86 L 103.445 31.86 Z  M 96.785 28.885 L 96.785 31.56 L 101.275 27.918 L 101.275 27.918 Q 101.104 27.392 100.738 27.08 L 100.738 27.08 L 100.738 27.08 Q 100.062 26.5 99.095 26.5 L 99.095 26.5 L 99.095 26.5 Q 98.128 26.5 97.457 27.075 L 97.457 27.075 L 97.457 27.075 Q 96.785 27.649 96.785 28.885 L 96.785 28.885 L 96.785 28.885 Z " fill="rgb(227,0,0)"/></g></svg>