<?xml version="1.0" encoding="UTF-8" standalone="no"?><!-- Generator: Gravit.io --><svg xmlns="http://www.w3.org/2000/svg" xmlns:xlink="http://www.w3.org/1999/xlink" style="isolation:isolate" viewBox="0 0 230 65" width="230pt" height="65pt"><defs><clipPath id="_clipPath_PjUnwAxGsZQoXTecgYzcBDWby0djxuvx"><rect width="230" height="65"/></clipPath></defs><g clip-path="url(#_clipPath_PjUnwAxGsZQoXTecgYzcBDWby0djxuvx)"><clipPath id="_clipPath_PJHzGkxssjKnJhqpursXXsCs00NCGbY9"><rect x="0" y="0" width="230" height="65" transform="matrix(1,0,0,1,0,0)" fill="rgb(255,255,255)"/></clipPath><g clip-path="url(#_clipPath_PJHzGkxssjKnJhqpursXXsCs00NCGbY9)"><g><g><rect x="4.25" y="8.5" width="217" height="53" transform="matrix(1,0,0,1,0,0)" fill="rgb(170,0,0)"/><rect x="8.75" y="3.5" width="217" height="53" transform="matrix(1,0,0,1,0,0)" fill="none" vector-effect="non-scaling-stroke" stroke-width="3" stroke="rgb(0,0,0)" stroke-opacity="100" stroke-linejoin="miter" stroke-linecap="square" stroke-miterlimit="2"/><path d=" M 58.795 36.575 L 58.795 36.575 Q 58.905 37.477 59.301 37.884 L 59.301 37.884 L 59.301 37.884 Q 59.697 38.291 60.61 38.291 L 60.61 38.291 L 60.61 38.291 Q 61.523 38.291 61.875 37.895 L 61.875 37.895 L 61.875 37.895 Q 62.227 37.499 62.359 36.575 L 62.359 36.575 L 64.075 23.617 L 64.075 23.617 Q 64.141 23.111 64.988 23.111 L 64.988 23.111 L 64.988 23.111 Q 65.835 23.111 65.835 23.551 L 65.835 23.551 L 64.075 36.817 L 64.075 36.817 Q 63.877 38.423 63.129 39.127 L 63.129 39.127 L 63.129 39.127 Q 62.381 39.831 60.61 39.831 L 60.61 39.831 L 60.61 39.831 Q 58.839 39.831 58.069 39.116 L 58.069 39.116 L 58.069 39.116 Q 57.299 38.401 57.167 36.817 L 57.167 36.817 L 56.661 31.405 L 56.441 31.405 L 55.935 36.817 L 55.935 36.817 Q 55.781 38.401 55.022 39.116 L 55.022 39.116 L 55.022 39.116 Q 54.263 39.831 52.492 39.831 L 52.492 39.831 L 52.492 39.831 Q 50.721 39.831 49.973 39.127 L 49.973 39.127 L 49.973 39.127 Q 49.225 38.423 49.027 36.817 L 49.027 36.817 L 47.267 23.507 L 47.267 23.507 Q 47.267 23.111 48.114 23.111 L 48.114 23.111 L 48.114 23.111 Q 48.961 23.111 49.027 23.617 L 49.027 23.617 L 50.743 36.575 L 50.743 36.575 Q 50.875 37.499 51.216 37.895 L 51.216 37.895 L 51.216 37.895 Q 51.557 38.291 52.481 38.291 L 52.481 38.291 L 52.481 38.291 Q 53.405 38.291 53.79 37.884 L 53.79 37.884 L 53.79 37.884 Q 54.175 37.477 54.307 36.575 L 54.307 36.575 L 55.671 25.619 L 55.671 25.619 Q 55.737 25.113 56.551 25.113 L 56.551 25.113 L 56.551 25.113 Q 57.365 25.113 57.431 25.619 L 57.431 25.619 L 58.795 36.575 Z  M 76.945 30.107 L 76.945 30.107 L 76.945 29.249 L 76.945 29.249 Q 76.945 27.511 74.107 27.511 L 74.107 27.511 L 74.107 27.511 Q 72.897 27.511 72.127 27.907 L 72.127 27.907 L 72.127 27.907 Q 71.357 28.303 71.357 29.161 L 71.357 29.161 L 71.357 29.645 L 71.357 29.645 Q 71.357 30.833 71.665 31.196 L 71.665 31.196 L 71.665 31.196 Q 71.973 31.559 72.985 31.801 L 72.985 31.801 L 74.899 32.285 L 74.899 32.285 Q 77.627 32.989 78.133 33.649 L 78.133 33.649 L 78.133 33.649 Q 78.749 34.463 78.749 35.805 L 78.749 35.805 L 78.749 36.597 L 78.749 36.597 Q 78.749 38.313 77.418 39.072 L 77.418 39.072 L 77.418 39.072 Q 76.087 39.831 73.975 39.831 L 73.975 39.831 L 73.975 39.831 Q 70.543 39.831 69.619 38.093 L 69.619 38.093 L 69.619 38.093 Q 69.245 37.367 69.245 36.333 L 69.245 36.333 L 69.245 35.629 L 69.245 35.629 Q 69.245 35.343 69.443 35.244 L 69.443 35.244 L 69.443 35.244 Q 69.641 35.145 70.125 35.145 L 70.125 35.145 L 70.125 35.145 Q 70.983 35.145 70.983 35.695 L 70.983 35.695 L 70.983 36.685 L 70.983 36.685 Q 70.983 37.565 71.753 37.928 L 71.753 37.928 L 71.753 37.928 Q 72.523 38.291 73.997 38.291 L 73.997 38.291 L 73.997 38.291 Q 77.011 38.291 77.011 36.751 L 77.011 36.751 L 77.011 35.585 L 77.011 35.585 Q 77.011 34.903 76.494 34.529 L 76.494 34.529 L 76.494 34.529 Q 75.977 34.155 74.723 33.825 L 74.723 33.825 L 72.787 33.341 L 72.787 33.341 Q 70.829 32.857 70.224 32.186 L 70.224 32.186 L 70.224 32.186 Q 69.619 31.515 69.619 29.579 L 69.619 29.579 L 69.619 29.315 L 69.619 29.315 Q 69.663 27.555 70.873 26.763 L 70.873 26.763 L 70.873 26.763 Q 72.083 25.971 74.063 25.971 L 74.063 25.971 L 74.063 25.971 Q 78.683 25.971 78.683 29.403 L 78.683 29.403 L 78.683 30.173 L 78.683 30.173 Q 78.683 30.635 77.814 30.635 L 77.814 30.635 L 77.814 30.635 Q 76.945 30.635 76.945 30.107 Z  M 86.339 37.961 L 86.339 37.961 L 88.253 37.961 L 88.253 37.961 Q 91.245 37.961 91.245 36.245 L 91.245 36.245 L 91.245 29.227 L 91.245 29.227 Q 91.245 27.511 88.242 27.511 L 88.242 27.511 L 88.242 27.511 Q 85.239 27.511 85.239 29.227 L 85.239 29.227 L 85.239 44.605 L 85.239 44.605 Q 85.239 45.111 84.359 45.111 L 84.359 45.111 L 84.359 45.111 Q 83.479 45.111 83.479 44.605 L 83.479 44.605 L 83.479 29.447 L 83.479 29.447 Q 83.479 27.621 84.777 26.796 L 84.777 26.796 L 84.777 26.796 Q 86.075 25.971 88.231 25.971 L 88.231 25.971 L 88.231 25.971 Q 90.387 25.971 91.696 26.796 L 91.696 26.796 L 91.696 26.796 Q 93.005 27.621 93.005 29.447 L 93.005 29.447 L 93.005 36.025 L 93.005 36.025 Q 93.005 37.851 91.707 38.676 L 91.707 38.676 L 91.707 38.676 Q 90.409 39.501 88.253 39.501 L 88.253 39.501 L 86.339 39.501 L 86.339 39.501 Q 85.899 39.501 85.899 38.731 L 85.899 38.731 L 85.899 38.731 Q 85.899 37.961 86.339 37.961 Z  M 105.171 36.575 L 105.171 36.575 L 105.171 29.227 L 105.171 29.227 Q 105.171 27.511 102.168 27.511 L 102.168 27.511 L 102.168 27.511 Q 99.165 27.511 99.165 29.227 L 99.165 29.227 L 99.165 36.575 L 99.165 36.575 Q 99.165 38.291 102.168 38.291 L 102.168 38.291 L 102.168 38.291 Q 105.171 38.291 105.171 36.575 Z  M 106.931 29.447 L 106.931 29.447 L 106.931 36.355 L 106.931 36.355 Q 106.931 38.181 105.633 39.006 L 105.633 39.006 L 105.633 39.006 Q 104.335 39.831 102.179 39.831 L 102.179 39.831 L 102.179 39.831 Q 100.023 39.831 98.714 39.006 L 98.714 39.006 L 98.714 39.006 Q 97.405 38.181 97.405 36.355 L 97.405 36.355 L 97.405 29.447 L 97.405 29.447 Q 97.405 27.621 98.703 26.796 L 98.703 26.796 L 98.703 26.796 Q 100.001 25.971 102.157 25.971 L 102.157 25.971 L 102.157 25.971 Q 104.313 25.971 105.622 26.796 L 105.622 26.796 L 105.622 26.796 Q 106.931 27.621 106.931 29.447 Z  M 104.951 22.825 L 100.881 24.761 L 100.727 24.827 L 100.727 24.827 Q 100.529 24.827 100.276 24.453 L 100.276 24.453 L 100.276 24.453 Q 100.023 24.079 100.023 23.87 L 100.023 23.87 L 100.023 23.87 Q 100.023 23.661 100.177 23.529 L 100.177 23.529 L 103.895 20.977 L 103.895 20.977 Q 104.005 20.889 104.247 20.889 L 104.247 20.889 L 104.247 20.889 Q 104.489 20.889 104.841 21.428 L 104.841 21.428 L 104.841 21.428 Q 105.193 21.967 105.193 22.33 L 105.193 22.33 L 105.193 22.33 Q 105.193 22.693 104.951 22.825 L 104.951 22.825 Z  M 113.311 22.407 L 113.311 22.407 L 113.311 30.063 L 115.137 29.557 L 115.137 29.557 Q 115.533 29.557 115.533 30.217 L 115.533 30.217 L 115.533 30.217 Q 115.533 30.877 115.071 30.965 L 115.071 30.965 L 113.311 31.449 L 113.311 36.927 L 113.311 36.927 Q 113.311 37.631 113.641 38.236 L 113.641 38.236 L 113.641 38.236 Q 113.971 38.841 113.971 38.863 L 113.971 38.863 L 113.971 38.863 Q 113.971 39.127 113.553 39.424 L 113.553 39.424 L 113.553 39.424 Q 113.135 39.721 112.849 39.721 L 112.849 39.721 L 112.849 39.721 Q 112.387 39.721 111.969 38.918 L 111.969 38.918 L 111.969 38.918 Q 111.551 38.115 111.551 37.147 L 111.551 37.147 L 111.551 31.911 L 109.769 32.395 L 109.769 32.395 Q 109.373 32.395 109.373 31.757 L 109.373 31.757 L 109.373 31.757 Q 109.373 31.119 109.835 30.987 L 109.835 30.987 L 111.551 30.525 L 111.551 22.407 L 111.551 22.407 Q 111.551 21.901 112.431 21.901 L 112.431 21.901 L 112.431 21.901 Q 113.311 21.901 113.311 22.407 Z  M 121.011 37.961 L 121.011 37.961 L 122.925 37.961 L 122.925 37.961 Q 125.917 37.961 125.917 36.245 L 125.917 36.245 L 125.917 29.227 L 125.917 29.227 Q 125.917 27.511 122.914 27.511 L 122.914 27.511 L 122.914 27.511 Q 119.911 27.511 119.911 29.227 L 119.911 29.227 L 119.911 44.605 L 119.911 44.605 Q 119.911 45.111 119.031 45.111 L 119.031 45.111 L 119.031 45.111 Q 118.151 45.111 118.151 44.605 L 118.151 44.605 L 118.151 29.447 L 118.151 29.447 Q 118.151 27.621 119.449 26.796 L 119.449 26.796 L 119.449 26.796 Q 120.747 25.971 122.903 25.971 L 122.903 25.971 L 122.903 25.971 Q 125.059 25.971 126.368 26.796 L 126.368 26.796 L 126.368 26.796 Q 127.677 27.621 127.677 29.447 L 127.677 29.447 L 127.677 36.025 L 127.677 36.025 Q 127.677 37.851 126.379 38.676 L 126.379 38.676 L 126.379 38.676 Q 125.081 39.501 122.925 39.501 L 122.925 39.501 L 121.011 39.501 L 121.011 39.501 Q 120.571 39.501 120.571 38.731 L 120.571 38.731 L 120.571 38.731 Q 120.571 37.961 121.011 37.961 Z  M 138.149 30.327 L 138.149 30.327 L 138.149 29.227 L 138.149 29.227 Q 138.149 27.511 136.103 27.511 L 136.103 27.511 L 136.103 27.511 Q 134.057 27.511 134.057 29.227 L 134.057 29.227 L 134.057 39.325 L 134.057 39.325 Q 134.057 39.831 133.177 39.831 L 133.177 39.831 L 133.177 39.831 Q 132.297 39.831 132.297 39.325 L 132.297 39.325 L 132.297 29.447 L 132.297 29.447 Q 132.297 27.621 133.342 26.796 L 133.342 26.796 L 133.342 26.796 Q 134.387 25.971 136.103 25.971 L 136.103 25.971 L 136.103 25.971 Q 139.909 25.971 139.909 29.403 L 139.909 29.403 L 139.909 30.327 L 139.909 30.327 Q 139.909 30.833 139.029 30.833 L 139.029 30.833 L 139.029 30.833 Q 138.149 30.833 138.149 30.327 Z  M 148.335 39.501 L 148.335 39.501 L 145.761 39.501 L 145.761 39.501 Q 143.825 39.501 142.967 38.709 L 142.967 38.709 L 142.967 38.709 Q 142.109 37.917 142.109 36.025 L 142.109 36.025 L 142.109 35.849 L 142.109 35.849 Q 142.109 33.979 142.879 33.275 L 142.879 33.275 L 142.879 33.275 Q 143.649 32.571 145.629 32.373 L 145.629 32.373 L 149.435 31.999 L 149.435 29.557 L 149.435 29.557 Q 149.435 27.841 146.443 27.841 L 146.443 27.841 L 143.429 27.841 L 143.429 27.841 Q 142.989 27.841 142.989 27.071 L 142.989 27.071 L 142.989 27.071 Q 142.989 26.301 143.429 26.301 L 143.429 26.301 L 146.443 26.301 L 146.443 26.301 Q 148.599 26.301 149.897 27.126 L 149.897 27.126 L 149.897 27.126 Q 151.195 27.951 151.195 29.777 L 151.195 29.777 L 151.195 36.267 L 151.195 36.267 Q 151.195 37.697 151.701 38.533 L 151.701 38.533 L 151.701 38.533 Q 151.855 38.797 151.855 38.863 L 151.855 38.863 L 151.855 38.863 Q 151.855 39.127 151.437 39.424 L 151.437 39.424 L 151.437 39.424 Q 151.019 39.721 150.733 39.721 L 150.733 39.721 L 150.733 39.721 Q 150.249 39.721 149.842 38.808 L 149.842 38.808 L 149.842 38.808 Q 149.435 37.895 149.435 36.487 L 149.435 36.487 L 149.435 33.539 L 145.761 33.913 L 145.761 33.913 Q 144.573 34.045 144.221 34.441 L 144.221 34.441 L 144.221 34.441 Q 143.869 34.837 143.869 35.849 L 143.869 35.849 L 143.869 36.025 L 143.869 36.025 Q 143.869 37.081 144.232 37.521 L 144.232 37.521 L 144.232 37.521 Q 144.595 37.961 145.761 37.961 L 145.761 37.961 L 148.335 37.961 L 148.335 37.961 Q 148.775 37.961 148.775 38.731 L 148.775 38.731 L 148.775 38.731 Q 148.775 39.501 148.335 39.501 Z  M 157.575 29.227 L 157.575 29.227 L 157.575 36.575 L 157.575 36.575 Q 157.575 38.291 160.391 38.291 L 160.391 38.291 L 160.391 38.291 Q 163.207 38.291 163.207 36.575 L 163.207 36.575 L 163.207 35.651 L 163.207 35.651 Q 163.207 35.145 164.087 35.145 L 164.087 35.145 L 164.087 35.145 Q 164.967 35.145 164.967 35.651 L 164.967 35.651 L 164.967 36.355 L 164.967 36.355 Q 164.967 38.181 163.724 39.006 L 163.724 39.006 L 163.724 39.006 Q 162.481 39.831 160.402 39.831 L 160.402 39.831 L 160.402 39.831 Q 158.323 39.831 157.069 39.006 L 157.069 39.006 L 157.069 39.006 Q 155.815 38.181 155.815 36.355 L 155.815 36.355 L 155.815 29.447 L 155.815 29.447 Q 155.815 27.621 157.069 26.796 L 157.069 26.796 L 157.069 26.796 Q 158.323 25.971 160.402 25.971 L 160.402 25.971 L 160.402 25.971 Q 162.481 25.971 163.724 26.796 L 163.724 26.796 L 163.724 26.796 Q 164.967 27.621 164.967 29.447 L 164.967 29.447 L 164.967 30.151 L 164.967 30.151 Q 164.967 30.657 164.087 30.657 L 164.087 30.657 L 164.087 30.657 Q 163.207 30.657 163.207 30.151 L 163.207 30.151 L 163.207 29.227 L 163.207 29.227 Q 163.207 27.511 160.391 27.511 L 160.391 27.511 L 160.391 27.511 Q 157.575 27.511 157.575 29.227 Z  M 174.713 39.501 L 174.713 39.501 L 172.139 39.501 L 172.139 39.501 Q 170.203 39.501 169.345 38.709 L 169.345 38.709 L 169.345 38.709 Q 168.487 37.917 168.487 36.025 L 168.487 36.025 L 168.487 35.849 L 168.487 35.849 Q 168.487 33.979 169.257 33.275 L 169.257 33.275 L 169.257 33.275 Q 170.027 32.571 172.007 32.373 L 172.007 32.373 L 175.813 31.999 L 175.813 29.557 L 175.813 29.557 Q 175.813 27.841 172.821 27.841 L 172.821 27.841 L 169.807 27.841 L 169.807 27.841 Q 169.367 27.841 169.367 27.071 L 169.367 27.071 L 169.367 27.071 Q 169.367 26.301 169.807 26.301 L 169.807 26.301 L 172.821 26.301 L 172.821 26.301 Q 174.977 26.301 176.275 27.126 L 176.275 27.126 L 176.275 27.126 Q 177.573 27.951 177.573 29.777 L 177.573 29.777 L 177.573 36.267 L 177.573 36.267 Q 177.573 37.697 178.079 38.533 L 178.079 38.533 L 178.079 38.533 Q 178.233 38.797 178.233 38.863 L 178.233 38.863 L 178.233 38.863 Q 178.233 39.127 177.815 39.424 L 177.815 39.424 L 177.815 39.424 Q 177.397 39.721 177.111 39.721 L 177.111 39.721 L 177.111 39.721 Q 176.627 39.721 176.22 38.808 L 176.22 38.808 L 176.22 38.808 Q 175.813 37.895 175.813 36.487 L 175.813 36.487 L 175.813 33.539 L 172.139 33.913 L 172.139 33.913 Q 170.951 34.045 170.599 34.441 L 170.599 34.441 L 170.599 34.441 Q 170.247 34.837 170.247 35.849 L 170.247 35.849 L 170.247 36.025 L 170.247 36.025 Q 170.247 37.081 170.61 37.521 L 170.61 37.521 L 170.61 37.521 Q 170.973 37.961 172.139 37.961 L 172.139 37.961 L 174.713 37.961 L 174.713 37.961 Q 175.153 37.961 175.153 38.731 L 175.153 38.731 L 175.153 38.731 Q 175.153 39.501 174.713 39.501 Z " fill="rgb(255,255,255)"/></g></g></g></g></svg>