<?xml version="1.0" encoding="UTF-8" standalone="no"?><!-- Generator: Gravit.io --><svg xmlns="http://www.w3.org/2000/svg" xmlns:xlink="http://www.w3.org/1999/xlink" style="isolation:isolate" viewBox="0 0 230 65" width="230pt" height="65pt"><defs><clipPath id="_clipPath_PoTaufVmaIPyWpZeh79SBRQNhiiF9ZqK"><rect width="230" height="65"/></clipPath></defs><g clip-path="url(#_clipPath_PoTaufVmaIPyWpZeh79SBRQNhiiF9ZqK)"><g><rect x="4.25" y="8.5" width="217" height="53" transform="matrix(1,0,0,1,0,0)" fill="rgb(170,0,0)"/><rect x="8.75" y="3.5" width="217" height="53" transform="matrix(1,0,0,1,0,0)" fill="none" vector-effect="non-scaling-stroke" stroke-width="3" stroke="rgb(0,0,0)" stroke-linejoin="miter" stroke-linecap="square" stroke-miterlimit="2"/></g><path d=" M 132.807 38.987 L 132.685 38.987 L 132.685 29.71 L 132.685 29.71 Q 132.685 27.696 134.199 26.207 L 134.199 26.207 L 134.199 26.207 Q 135.615 24.827 137.751 24.827 L 137.751 24.827 L 137.751 24.827 Q 139.863 24.827 141.303 26.207 L 141.303 26.207 L 141.303 26.207 Q 142.817 27.671 142.817 29.71 L 142.817 29.71 L 142.817 37.889 L 140.498 38.987 L 140.375 38.987 L 140.375 29.71 L 140.375 29.71 Q 140.375 28.306 139.613 27.653 L 139.613 27.653 L 139.613 27.653 Q 138.85 27 137.751 27 L 137.751 27 L 137.751 27 Q 136.652 27 135.889 27.653 L 135.889 27.653 L 135.889 27.653 Q 135.126 28.306 135.126 29.71 L 135.126 29.71 L 135.126 37.889 L 132.807 38.987 L 132.807 38.987 Z  M 155.756 29.71 L 155.756 37.889 L 153.437 38.987 L 153.315 38.987 L 153.315 37.706 L 153.315 37.706 Q 152.338 38.743 150.69 38.743 L 150.69 38.743 L 150.69 38.743 Q 148.408 38.743 147.138 37.364 L 147.138 37.364 L 147.138 37.364 Q 145.869 35.984 145.869 34.104 L 145.869 34.104 L 145.869 34.104 Q 145.869 32.151 147.248 30.784 L 147.248 30.784 L 147.248 30.784 Q 148.579 29.466 150.69 29.466 L 150.69 29.466 L 150.69 29.466 Q 152.192 29.466 153.315 30.503 L 153.315 30.503 L 153.315 30.503 Q 153.315 28.343 152.558 27.659 L 152.558 27.659 L 152.558 27.659 Q 151.826 27 150.69 27 L 150.69 27 L 147.724 27 L 147.724 26.878 L 148.701 24.827 L 150.69 24.827 L 150.69 24.827 Q 152.827 24.827 154.243 26.207 L 154.243 26.207 L 154.243 26.207 Q 155.756 27.684 155.756 29.71 L 155.756 29.71 L 155.756 29.71 Z  M 148.261 34.104 L 148.261 34.104 L 148.261 34.104 Q 148.261 35.191 148.92 35.899 L 148.92 35.899 L 148.92 35.899 Q 149.555 36.583 150.703 36.583 L 150.703 36.583 L 150.703 36.583 Q 151.899 36.583 152.558 35.887 L 152.558 35.887 L 152.558 35.887 Q 153.291 35.105 153.291 34.129 L 153.291 34.129 L 153.291 34.129 Q 153.291 33.03 152.534 32.347 L 152.534 32.347 L 152.534 32.347 Q 151.777 31.663 150.715 31.663 L 150.715 31.663 L 150.715 31.663 Q 149.604 31.663 148.933 32.383 L 148.933 32.383 L 148.933 32.383 Q 148.261 33.104 148.261 34.104 Z  M 159.541 38.987 L 159.418 38.987 L 159.418 29.71 L 159.418 29.71 Q 159.418 27.696 160.932 26.207 L 160.932 26.207 L 160.932 26.207 Q 162.348 24.827 164.484 24.827 L 164.484 24.827 L 164.484 24.827 Q 166.425 24.827 167.841 26.243 L 167.841 26.243 L 167.841 26.243 Q 168.11 26.512 168.33 26.878 L 168.33 26.878 L 168.33 26.878 Q 168.549 26.524 168.818 26.255 L 168.818 26.255 L 168.818 26.255 Q 170.344 24.827 172.175 24.827 L 172.175 24.827 L 172.175 24.827 Q 174.287 24.827 175.727 26.207 L 175.727 26.207 L 175.727 26.207 Q 177.241 27.671 177.241 29.71 L 177.241 29.71 L 177.241 37.889 L 174.921 38.987 L 174.799 38.987 L 174.799 29.71 L 174.799 29.71 Q 174.799 28.306 174.036 27.653 L 174.036 27.653 L 174.036 27.653 Q 173.273 27 172.175 27 L 172.175 27 L 172.175 27 Q 171.076 27 170.313 27.653 L 170.313 27.653 L 170.313 27.653 Q 169.55 28.306 169.55 29.71 L 169.55 29.71 L 169.55 37.889 L 167.231 38.987 L 167.109 38.987 L 167.109 29.71 L 167.109 29.71 Q 167.109 28.306 166.346 27.653 L 166.346 27.653 L 166.346 27.653 Q 165.583 27 164.484 27 L 164.484 27 L 164.484 27 Q 163.386 27 162.623 27.653 L 162.623 27.653 L 162.623 27.653 Q 161.86 28.306 161.86 29.71 L 161.86 29.71 L 161.86 37.889 L 159.541 38.987 L 159.541 38.987 Z  M 55.646 38.499 L 44.831 38.499 L 44.831 38.377 L 52.729 22.288 L 44.953 22.288 L 44.953 22.166 L 45.942 20.066 L 56.513 20.066 L 56.513 20.188 L 48.579 36.277 L 56.635 36.277 L 56.635 36.399 L 55.646 38.499 L 55.646 38.499 Z  M 68.11 29.71 L 68.11 37.889 L 65.791 38.987 L 65.668 38.987 L 65.668 37.706 L 65.668 37.706 Q 64.692 38.743 63.044 38.743 L 63.044 38.743 L 63.044 38.743 Q 60.761 38.743 59.492 37.364 L 59.492 37.364 L 59.492 37.364 Q 58.222 35.984 58.222 34.104 L 58.222 34.104 L 58.222 34.104 Q 58.222 32.151 59.602 30.784 L 59.602 30.784 L 59.602 30.784 Q 60.932 29.466 63.044 29.466 L 63.044 29.466 L 63.044 29.466 Q 64.545 29.466 65.668 30.503 L 65.668 30.503 L 65.668 30.503 Q 65.668 28.343 64.912 27.659 L 64.912 27.659 L 64.912 27.659 Q 64.179 27 63.044 27 L 63.044 27 L 60.078 27 L 60.078 26.878 L 61.054 24.827 L 63.044 24.827 L 63.044 24.827 Q 65.18 24.827 66.596 26.207 L 66.596 26.207 L 66.596 26.207 Q 68.11 27.684 68.11 29.71 L 68.11 29.71 L 68.11 29.71 Z  M 60.615 34.104 L 60.615 34.104 L 60.615 34.104 Q 60.615 35.191 61.274 35.899 L 61.274 35.899 L 61.274 35.899 Q 61.909 36.583 63.056 36.583 L 63.056 36.583 L 63.056 36.583 Q 64.252 36.583 64.912 35.887 L 64.912 35.887 L 64.912 35.887 Q 65.644 35.105 65.644 34.129 L 65.644 34.129 L 65.644 34.129 Q 65.644 33.03 64.887 32.347 L 64.887 32.347 L 64.887 32.347 Q 64.13 31.663 63.068 31.663 L 63.068 31.663 L 63.068 31.663 Q 61.958 31.663 61.286 32.383 L 61.286 32.383 L 61.286 32.383 Q 60.615 33.104 60.615 34.104 Z  M 81.782 24.583 L 81.904 24.583 L 81.904 33.86 L 81.904 33.86 Q 81.904 35.875 80.39 37.364 L 80.39 37.364 L 80.39 37.364 Q 78.974 38.743 76.838 38.743 L 76.838 38.743 L 76.838 38.743 Q 74.726 38.743 73.286 37.364 L 73.286 37.364 L 73.286 37.364 Q 71.772 35.899 71.772 33.86 L 71.772 33.86 L 71.772 25.682 L 74.091 24.583 L 74.213 24.583 L 74.213 33.86 L 74.213 33.86 Q 74.213 35.264 74.976 35.917 L 74.976 35.917 L 74.976 35.917 Q 75.739 36.57 76.838 36.57 L 76.838 36.57 L 76.838 36.57 Q 77.937 36.57 78.699 35.917 L 78.699 35.917 L 78.699 35.917 Q 79.462 35.264 79.462 33.86 L 79.462 33.86 L 79.462 25.682 L 81.782 24.583 L 81.782 24.583 Z  M 86.298 38.987 L 86.176 38.987 L 86.176 28.514 L 84.345 28.514 L 84.345 28.392 L 85.334 26.292 L 86.176 26.292 L 86.176 24.705 L 86.176 24.705 Q 86.176 22.691 87.69 21.202 L 87.69 21.202 L 87.69 21.202 Q 89.106 19.822 91.242 19.822 L 91.242 19.822 L 92.89 19.822 L 92.89 19.944 L 91.914 21.995 L 91.242 21.995 L 91.242 21.995 Q 90.144 21.995 89.375 22.654 L 89.375 22.654 L 89.375 22.654 Q 88.618 23.313 88.618 24.705 L 88.618 24.705 L 88.618 26.292 L 92.658 26.292 L 92.658 26.414 L 91.669 28.514 L 88.618 28.514 L 88.618 37.889 L 86.298 38.987 L 86.298 38.987 Z  M 104.609 29.71 L 104.609 37.889 L 102.29 38.987 L 102.167 38.987 L 102.167 37.706 L 102.167 37.706 Q 101.191 38.743 99.543 38.743 L 99.543 38.743 L 99.543 38.743 Q 97.26 38.743 95.991 37.364 L 95.991 37.364 L 95.991 37.364 Q 94.721 35.984 94.721 34.104 L 94.721 34.104 L 94.721 34.104 Q 94.721 32.151 96.101 30.784 L 96.101 30.784 L 96.101 30.784 Q 97.431 29.466 99.543 29.466 L 99.543 29.466 L 99.543 29.466 Q 101.044 29.466 102.167 30.503 L 102.167 30.503 L 102.167 30.503 Q 102.167 28.343 101.411 27.659 L 101.411 27.659 L 101.411 27.659 Q 100.678 27 99.543 27 L 99.543 27 L 96.577 27 L 96.577 26.878 L 97.553 24.827 L 99.543 24.827 L 99.543 24.827 Q 101.679 24.827 103.095 26.207 L 103.095 26.207 L 103.095 26.207 Q 104.609 27.684 104.609 29.71 L 104.609 29.71 L 104.609 29.71 Z  M 97.114 34.104 L 97.114 34.104 L 97.114 34.104 Q 97.114 35.191 97.773 35.899 L 97.773 35.899 L 97.773 35.899 Q 98.408 36.583 99.555 36.583 L 99.555 36.583 L 99.555 36.583 Q 100.751 36.583 101.411 35.887 L 101.411 35.887 L 101.411 35.887 Q 102.143 35.105 102.143 34.129 L 102.143 34.129 L 102.143 34.129 Q 102.143 33.03 101.386 32.347 L 101.386 32.347 L 101.386 32.347 Q 100.629 31.663 99.567 31.663 L 99.567 31.663 L 99.567 31.663 Q 98.457 31.663 97.785 32.383 L 97.785 32.383 L 97.785 32.383 Q 97.114 33.104 97.114 34.104 Z  M 109.003 38.987 L 108.881 38.987 L 108.881 20.677 L 111.201 19.578 L 111.323 19.578 L 111.323 37.889 L 109.003 38.987 L 109.003 38.987 Z  M 116.389 22.374 L 116.389 22.374 L 116.389 22.374 Q 115.961 21.934 115.961 21.318 L 115.961 21.318 L 115.961 21.318 Q 115.961 20.701 116.389 20.262 L 116.389 20.262 L 116.389 20.262 Q 116.816 19.822 117.426 19.822 L 117.426 19.822 L 117.426 19.822 Q 118.037 19.822 118.464 20.262 L 118.464 20.262 L 118.464 20.262 Q 118.891 20.701 118.891 21.318 L 118.891 21.318 L 118.891 21.318 Q 118.891 21.934 118.464 22.374 L 118.464 22.374 L 118.464 22.374 Q 118.037 22.813 117.426 22.813 L 117.426 22.813 L 117.426 22.813 Q 116.816 22.813 116.389 22.374 Z  M 116.328 38.987 L 116.206 38.987 L 116.206 25.682 L 118.525 24.583 L 118.647 24.583 L 118.647 37.889 L 116.328 38.987 L 116.328 38.987 Z " fill="rgb(255,255,255)"/></g></svg>