<?xml version="1.0" encoding="UTF-8" standalone="no"?><!-- Generator: Gravit.io --><svg xmlns="http://www.w3.org/2000/svg" xmlns:xlink="http://www.w3.org/1999/xlink" style="isolation:isolate" viewBox="0 0 230 65" width="230pt" height="65pt"><defs><clipPath id="_clipPath_Z36yftCrPl00xnbRWmte68OeqXcJnlc6"><rect width="230" height="65"/></clipPath></defs><g clip-path="url(#_clipPath_Z36yftCrPl00xnbRWmte68OeqXcJnlc6)"><clipPath id="_clipPath_XPVvUVyHSzLfVyPYkrec6GKlrd6HsMfD"><rect x="0" y="0" width="230" height="65" transform="matrix(1,0,0,1,0,0)" fill="rgb(255,255,255)"/></clipPath><g clip-path="url(#_clipPath_XPVvUVyHSzLfVyPYkrec6GKlrd6HsMfD)"><g><g><rect x="4.25" y="8.5" width="217" height="53" transform="matrix(1,0,0,1,0,0)" fill="rgb(170,0,0)"/><rect x="8.75" y="3.5" width="217" height="53" transform="matrix(1,0,0,1,0,0)" fill="none" vector-effect="non-scaling-stroke" stroke-width="3" stroke="rgb(0,0,0)" stroke-opacity="100" stroke-linejoin="miter" stroke-linecap="square" stroke-miterlimit="2"/></g></g></g><path d=" M 77.666 37.626 L 77.666 37.626 L 77.666 37.626 Q 77.666 38.022 76.896 38.022 L 76.896 38.022 L 76.896 38.022 Q 76.126 38.022 75.972 37.516 L 75.972 37.516 L 74.41 31.84 L 74.41 31.84 Q 74.212 31.07 73.86 30.861 L 73.86 30.861 L 73.86 30.861 Q 73.508 30.652 72.32 30.652 L 72.32 30.652 L 70.868 30.652 L 70.868 30.652 Q 70.428 30.652 70.428 29.882 L 70.428 29.882 L 70.428 29.882 Q 70.428 29.112 70.868 29.112 L 70.868 29.112 L 71.418 29.112 L 71.418 29.112 Q 72.936 29.112 73.343 28.914 L 73.343 28.914 L 73.343 28.914 Q 73.75 28.716 73.948 27.924 L 73.948 27.924 L 75.532 22.028 L 75.532 22.028 Q 75.686 21.522 76.456 21.522 L 76.456 21.522 L 76.456 21.522 Q 77.226 21.522 77.226 21.918 L 77.226 21.918 L 75.642 27.924 L 75.642 27.924 Q 75.356 28.98 74.74 29.442 L 74.74 29.442 L 74.74 29.442 Q 75.554 29.838 75.928 31.224 L 75.928 31.224 L 75.928 31.224 Q 77.666 37.56 77.666 37.626 Z  M 69.68 22.028 L 69.68 22.028 L 69.68 37.516 L 69.68 37.516 Q 69.68 38.022 68.8 38.022 L 68.8 38.022 L 68.8 38.022 Q 67.92 38.022 67.92 37.516 L 67.92 37.516 L 67.92 22.028 L 67.92 22.028 Q 67.92 21.522 68.8 21.522 L 68.8 21.522 L 68.8 21.522 Q 69.68 21.522 69.68 22.028 Z  M 88.974 34.986 L 88.974 34.986 L 88.974 27.638 L 88.974 27.638 Q 88.974 25.922 85.971 25.922 L 85.971 25.922 L 85.971 25.922 Q 82.968 25.922 82.968 27.638 L 82.968 27.638 L 82.968 34.986 L 82.968 34.986 Q 82.968 36.702 85.971 36.702 L 85.971 36.702 L 85.971 36.702 Q 88.974 36.702 88.974 34.986 Z  M 90.734 27.858 L 90.734 27.858 L 90.734 34.766 L 90.734 34.766 Q 90.734 36.592 89.436 37.417 L 89.436 37.417 L 89.436 37.417 Q 88.138 38.242 85.982 38.242 L 85.982 38.242 L 85.982 38.242 Q 83.826 38.242 82.517 37.417 L 82.517 37.417 L 82.517 37.417 Q 81.208 36.592 81.208 34.766 L 81.208 34.766 L 81.208 27.858 L 81.208 27.858 Q 81.208 26.032 82.506 25.207 L 82.506 25.207 L 82.506 25.207 Q 83.804 24.382 85.96 24.382 L 85.96 24.382 L 85.96 24.382 Q 88.116 24.382 89.425 25.207 L 89.425 25.207 L 89.425 25.207 Q 90.734 26.032 90.734 27.858 Z  M 104.88 27.858 L 104.88 27.858 L 104.88 37.516 L 104.88 37.516 Q 104.88 38.022 104 38.022 L 104 38.022 L 104 38.022 Q 103.12 38.022 103.12 37.516 L 103.12 37.516 L 103.12 27.638 L 103.12 27.638 Q 103.12 25.922 100.117 25.922 L 100.117 25.922 L 100.117 25.922 Q 97.114 25.922 97.114 27.638 L 97.114 27.638 L 97.114 37.516 L 97.114 37.516 Q 97.114 38.022 96.234 38.022 L 96.234 38.022 L 96.234 38.022 Q 95.354 38.022 95.354 37.516 L 95.354 37.516 L 95.354 27.858 L 95.354 27.858 Q 95.354 26.032 96.652 25.207 L 96.652 25.207 L 96.652 25.207 Q 97.95 24.382 100.106 24.382 L 100.106 24.382 L 100.106 24.382 Q 102.262 24.382 103.571 25.207 L 103.571 25.207 L 103.571 25.207 Q 104.88 26.032 104.88 27.858 Z  M 112.36 22.138 L 112.36 22.138 L 112.36 24.712 L 114.67 24.712 L 114.67 24.712 Q 115.11 24.712 115.11 25.482 L 115.11 25.482 L 115.11 25.482 Q 115.11 26.252 114.67 26.252 L 114.67 26.252 L 112.36 26.252 L 112.36 35.338 L 112.36 35.338 Q 112.36 36.042 112.69 36.647 L 112.69 36.647 L 112.69 36.647 Q 113.02 37.252 113.02 37.274 L 113.02 37.274 L 113.02 37.274 Q 113.02 37.538 112.602 37.835 L 112.602 37.835 L 112.602 37.835 Q 112.184 38.132 111.898 38.132 L 111.898 38.132 L 111.898 38.132 Q 111.436 38.132 111.018 37.329 L 111.018 37.329 L 111.018 37.329 Q 110.6 36.526 110.6 35.558 L 110.6 35.558 L 110.6 26.252 L 108.84 26.252 L 108.84 26.252 Q 108.4 26.252 108.4 25.482 L 108.4 25.482 L 108.4 25.482 Q 108.4 24.712 108.84 24.712 L 108.84 24.712 L 110.6 24.712 L 110.6 22.138 L 110.6 22.138 Q 110.6 21.632 111.48 21.632 L 111.48 21.632 L 111.48 21.632 Q 112.36 21.632 112.36 22.138 Z  M 123.756 37.912 L 123.756 37.912 L 121.182 37.912 L 121.182 37.912 Q 119.246 37.912 118.388 37.12 L 118.388 37.12 L 118.388 37.12 Q 117.53 36.328 117.53 34.436 L 117.53 34.436 L 117.53 34.26 L 117.53 34.26 Q 117.53 32.39 118.3 31.686 L 118.3 31.686 L 118.3 31.686 Q 119.07 30.982 121.05 30.784 L 121.05 30.784 L 124.856 30.41 L 124.856 27.968 L 124.856 27.968 Q 124.856 26.252 121.864 26.252 L 121.864 26.252 L 118.85 26.252 L 118.85 26.252 Q 118.41 26.252 118.41 25.482 L 118.41 25.482 L 118.41 25.482 Q 118.41 24.712 118.85 24.712 L 118.85 24.712 L 121.864 24.712 L 121.864 24.712 Q 124.02 24.712 125.318 25.537 L 125.318 25.537 L 125.318 25.537 Q 126.616 26.362 126.616 28.188 L 126.616 28.188 L 126.616 34.678 L 126.616 34.678 Q 126.616 36.108 127.122 36.944 L 127.122 36.944 L 127.122 36.944 Q 127.276 37.208 127.276 37.274 L 127.276 37.274 L 127.276 37.274 Q 127.276 37.538 126.858 37.835 L 126.858 37.835 L 126.858 37.835 Q 126.44 38.132 126.154 38.132 L 126.154 38.132 L 126.154 38.132 Q 125.67 38.132 125.263 37.219 L 125.263 37.219 L 125.263 37.219 Q 124.856 36.306 124.856 34.898 L 124.856 34.898 L 124.856 31.95 L 121.182 32.324 L 121.182 32.324 Q 119.994 32.456 119.642 32.852 L 119.642 32.852 L 119.642 32.852 Q 119.29 33.248 119.29 34.26 L 119.29 34.26 L 119.29 34.436 L 119.29 34.436 Q 119.29 35.492 119.653 35.932 L 119.653 35.932 L 119.653 35.932 Q 120.016 36.372 121.182 36.372 L 121.182 36.372 L 123.756 36.372 L 123.756 36.372 Q 124.196 36.372 124.196 37.142 L 124.196 37.142 L 124.196 37.142 Q 124.196 37.912 123.756 37.912 Z  M 133.216 20.818 L 133.216 20.818 L 133.216 37.516 L 133.216 37.516 Q 133.216 38.022 132.336 38.022 L 132.336 38.022 L 132.336 38.022 Q 131.456 38.022 131.456 37.516 L 131.456 37.516 L 131.456 20.818 L 131.456 20.818 Q 131.456 20.312 132.336 20.312 L 132.336 20.312 L 132.336 20.312 Q 133.216 20.312 133.216 20.818 Z  M 140.872 37.626 L 140.872 37.626 L 140.872 37.626 Q 140.872 38.022 140.102 38.022 L 140.102 38.022 L 140.102 38.022 Q 139.332 38.022 139.178 37.516 L 139.178 37.516 L 137.88 33.05 L 137.88 33.05 Q 137.66 32.28 137.319 32.071 L 137.319 32.071 L 137.319 32.071 Q 136.978 31.862 135.79 31.862 L 135.79 31.862 L 134.404 31.862 L 134.404 31.862 Q 133.964 31.862 133.964 31.092 L 133.964 31.092 L 133.964 31.092 Q 133.964 30.322 134.404 30.322 L 134.404 30.322 L 135.24 30.322 L 135.24 30.322 Q 136.164 30.3 136.45 30.091 L 136.45 30.091 L 136.45 30.091 Q 136.736 29.882 137 29.134 L 137 29.134 L 138.474 25.108 L 138.474 25.108 Q 138.65 24.602 139.409 24.602 L 139.409 24.602 L 139.409 24.602 Q 140.168 24.602 140.168 24.998 L 140.168 24.998 L 140.168 24.998 Q 140.168 25.02 139.948 25.68 L 139.948 25.68 L 138.518 29.75 L 138.518 29.75 Q 138.32 30.3 137.968 30.586 L 137.968 30.586 L 137.968 30.586 Q 138.98 30.96 139.398 32.434 L 139.398 32.434 L 140.718 37.032 L 140.718 37.032 Q 140.872 37.604 140.872 37.626 Z  M 147.34 22.138 L 147.34 22.138 L 147.34 24.712 L 149.65 24.712 L 149.65 24.712 Q 150.09 24.712 150.09 25.482 L 150.09 25.482 L 150.09 25.482 Q 150.09 26.252 149.65 26.252 L 149.65 26.252 L 147.34 26.252 L 147.34 35.338 L 147.34 35.338 Q 147.34 36.042 147.67 36.647 L 147.67 36.647 L 147.67 36.647 Q 148 37.252 148 37.274 L 148 37.274 L 148 37.274 Q 148 37.538 147.582 37.835 L 147.582 37.835 L 147.582 37.835 Q 147.164 38.132 146.878 38.132 L 146.878 38.132 L 146.878 38.132 Q 146.416 38.132 145.998 37.329 L 145.998 37.329 L 145.998 37.329 Q 145.58 36.526 145.58 35.558 L 145.58 35.558 L 145.58 26.252 L 143.82 26.252 L 143.82 26.252 Q 143.38 26.252 143.38 25.482 L 143.38 25.482 L 143.38 25.482 Q 143.38 24.712 143.82 24.712 L 143.82 24.712 L 145.58 24.712 L 145.58 22.138 L 145.58 22.138 Q 145.58 21.632 146.46 21.632 L 146.46 21.632 L 146.46 21.632 Q 147.34 21.632 147.34 22.138 Z " fill="rgb(255,255,255)"/></g></svg>