<?xml version="1.0" encoding="UTF-8" standalone="no"?><!-- Generator: Gravit.io --><svg xmlns="http://www.w3.org/2000/svg" xmlns:xlink="http://www.w3.org/1999/xlink" style="isolation:isolate" viewBox="0 0 230 65" width="230pt" height="65pt"><defs><clipPath id="_clipPath_lER4WHe8IEtZf4KYRkOMtyhrKEBpd0vF"><rect x="0" y="0" width="230" height="65"/></clipPath></defs><g clip-path="url(#_clipPath_lER4WHe8IEtZf4KYRkOMtyhrKEBpd0vF)"><clipPath id="_clipPath_RW18bOZxGG4prSNp4VuRkxTrLBIySkJm"><rect x="0" y="0" width="230" height="65" transform="matrix(1,0,0,1,0,0)" fill="rgb(255,255,255)"/></clipPath><g clip-path="url(#_clipPath_RW18bOZxGG4prSNp4VuRkxTrLBIySkJm)"><g><clipPath id="_clipPath_DgtgUOhsW5sikYdNbmy1571TsGclE8ig"><rect x="0" y="0" width="230" height="65" transform="matrix(1,0,0,1,0,0)" fill="rgb(255,255,255)"/></clipPath><g clip-path="url(#_clipPath_DgtgUOhsW5sikYdNbmy1571TsGclE8ig)"><g><g><clipPath id="_clipPath_mgAi2H8gbW1rLXgLMXnvSJ3kWa8yjPgZ"><rect x="0" y="0" width="230" height="65" transform="matrix(1,0,0,1,0,0)" fill="rgb(255,255,255)"/></clipPath><g clip-path="url(#_clipPath_mgAi2H8gbW1rLXgLMXnvSJ3kWa8yjPgZ)"><g><g><g><clipPath id="_clipPath_QRnImch0KAZ0pkD3LSrsFSBlvlbPjPFz"><rect x="0" y="0" width="230" height="65" transform="matrix(1,0,0,1,0,0)" fill="rgb(255,255,255)"/></clipPath><g clip-path="url(#_clipPath_QRnImch0KAZ0pkD3LSrsFSBlvlbPjPFz)"><g><g><g><g><g><rect x="4.25" y="8.5" width="217" height="53" transform="matrix(1,0,0,1,0,0)" fill="rgb(170,0,0)"/><rect x="8.75" y="3.5" width="217" height="53" transform="matrix(1,0,0,1,0,0)" fill="none" vector-effect="non-scaling-stroke" stroke-width="3" stroke="rgb(0,0,0)" stroke-opacity="100000000" stroke-linejoin="miter" stroke-linecap="square" stroke-miterlimit="2"/></g></g></g></g></g></g></g></g></g></g></g></g></g></g></g><path d=" M 67.96 24.144 L 67.96 24.144 L 78.04 24.144 L 78.04 24.144 Q 78.52 24.144 78.52 24.984 L 78.52 24.984 L 78.52 24.984 Q 78.52 25.824 78.04 25.824 L 78.04 25.824 L 73.96 25.824 L 73.96 41.472 L 73.96 41.472 Q 73.96 42.024 73 42.024 L 73 42.024 L 73 42.024 Q 72.04 42.024 72.04 41.472 L 72.04 41.472 L 72.04 25.824 L 67.96 25.824 L 67.96 25.824 Q 67.48 25.824 67.48 24.984 L 67.48 24.984 L 67.48 24.984 Q 67.48 24.144 67.96 24.144 Z  M 87.712 41.904 L 87.712 41.904 L 84.904 41.904 L 84.904 41.904 Q 82.792 41.904 81.856 41.04 L 81.856 41.04 L 81.856 41.04 Q 80.92 40.176 80.92 38.112 L 80.92 38.112 L 80.92 37.92 L 80.92 37.92 Q 80.92 35.88 81.76 35.112 L 81.76 35.112 L 81.76 35.112 Q 82.6 34.344 84.76 34.128 L 84.76 34.128 L 88.912 33.72 L 88.912 31.056 L 88.912 31.056 Q 88.912 29.184 85.648 29.184 L 85.648 29.184 L 82.36 29.184 L 82.36 29.184 Q 81.88 29.184 81.88 28.344 L 81.88 28.344 L 81.88 28.344 Q 81.88 27.504 82.36 27.504 L 82.36 27.504 L 85.648 27.504 L 85.648 27.504 Q 88 27.504 89.416 28.404 L 89.416 28.404 L 89.416 28.404 Q 90.832 29.304 90.832 31.296 L 90.832 31.296 L 90.832 38.376 L 90.832 38.376 Q 90.832 39.936 91.384 40.848 L 91.384 40.848 L 91.384 40.848 Q 91.552 41.136 91.552 41.208 L 91.552 41.208 L 91.552 41.208 Q 91.552 41.496 91.096 41.82 L 91.096 41.82 L 91.096 41.82 Q 90.64 42.144 90.328 42.144 L 90.328 42.144 L 90.328 42.144 Q 89.8 42.144 89.356 41.148 L 89.356 41.148 L 89.356 41.148 Q 88.912 40.152 88.912 38.616 L 88.912 38.616 L 88.912 35.4 L 84.904 35.808 L 84.904 35.808 Q 83.608 35.952 83.224 36.384 L 83.224 36.384 L 83.224 36.384 Q 82.84 36.816 82.84 37.92 L 82.84 37.92 L 82.84 38.112 L 82.84 38.112 Q 82.84 39.264 83.236 39.744 L 83.236 39.744 L 83.236 39.744 Q 83.632 40.224 84.904 40.224 L 84.904 40.224 L 87.712 40.224 L 87.712 40.224 Q 88.192 40.224 88.192 41.064 L 88.192 41.064 L 88.192 41.064 Q 88.192 41.904 87.712 41.904 Z  M 101.32 29.184 L 101.32 29.184 L 99.232 29.184 L 99.232 29.184 Q 98.752 29.184 98.752 28.344 L 98.752 28.344 L 98.752 28.344 Q 98.752 27.504 99.232 27.504 L 99.232 27.504 L 101.32 27.504 L 101.32 27.504 Q 103.672 27.504 105.088 28.404 L 105.088 28.404 L 105.088 28.404 Q 106.504 29.304 106.504 31.296 L 106.504 31.296 L 106.504 38.472 L 106.504 38.472 Q 106.504 40.464 105.076 41.364 L 105.076 41.364 L 105.076 41.364 Q 103.648 42.264 101.296 42.264 L 101.296 42.264 L 101.296 42.264 Q 98.944 42.264 97.528 41.364 L 97.528 41.364 L 97.528 41.364 Q 96.112 40.464 96.112 38.472 L 96.112 38.472 L 96.112 23.256 L 96.112 23.256 Q 96.112 22.704 97.072 22.704 L 97.072 22.704 L 97.072 22.704 Q 98.032 22.704 98.032 23.256 L 98.032 23.256 L 98.032 38.712 L 98.032 38.712 Q 98.032 40.584 101.308 40.584 L 101.308 40.584 L 101.308 40.584 Q 104.584 40.584 104.584 38.712 L 104.584 38.712 L 104.584 31.056 L 104.584 31.056 Q 104.584 29.184 101.32 29.184 Z  M 113.464 23.256 L 113.464 23.256 L 113.464 39.096 L 113.464 39.096 Q 113.464 39.864 113.824 40.524 L 113.824 40.524 L 113.824 40.524 Q 114.184 41.184 114.184 41.208 L 114.184 41.208 L 114.184 41.208 Q 114.184 41.496 113.728 41.82 L 113.728 41.82 L 113.728 41.82 Q 113.272 42.144 112.96 42.144 L 112.96 42.144 L 112.96 42.144 Q 112.456 42.144 112 41.268 L 112 41.268 L 112 41.268 Q 111.544 40.392 111.544 39.336 L 111.544 39.336 L 111.544 23.256 L 111.544 23.256 Q 111.544 22.704 112.504 22.704 L 112.504 22.704 L 112.504 22.704 Q 113.464 22.704 113.464 23.256 Z  M 120.664 27.936 L 120.664 27.936 L 120.664 39.096 L 120.664 39.096 Q 120.664 39.864 121.024 40.524 L 121.024 40.524 L 121.024 40.524 Q 121.384 41.184 121.384 41.208 L 121.384 41.208 L 121.384 41.208 Q 121.384 41.496 120.928 41.82 L 120.928 41.82 L 120.928 41.82 Q 120.472 42.144 120.16 42.144 L 120.16 42.144 L 120.16 42.144 Q 119.656 42.144 119.2 41.268 L 119.2 41.268 L 119.2 41.268 Q 118.744 40.392 118.744 39.336 L 118.744 39.336 L 118.744 27.936 L 118.744 27.936 Q 118.744 27.384 119.704 27.384 L 119.704 27.384 L 119.704 27.384 Q 120.664 27.384 120.664 27.936 Z  M 120.736 22.824 L 120.736 22.824 L 120.736 24.912 L 120.736 24.912 Q 120.736 25.512 119.692 25.512 L 119.692 25.512 L 119.692 25.512 Q 118.648 25.512 118.648 24.912 L 118.648 24.912 L 118.648 22.824 L 118.648 22.824 Q 118.648 22.224 119.692 22.224 L 119.692 22.224 L 119.692 22.224 Q 120.736 22.224 120.736 22.824 Z  M 127.624 30.696 L 127.624 30.696 L 127.624 38.712 L 127.624 38.712 Q 127.624 40.584 130.696 40.584 L 130.696 40.584 L 130.696 40.584 Q 133.768 40.584 133.768 38.712 L 133.768 38.712 L 133.768 37.704 L 133.768 37.704 Q 133.768 37.152 134.728 37.152 L 134.728 37.152 L 134.728 37.152 Q 135.688 37.152 135.688 37.704 L 135.688 37.704 L 135.688 38.472 L 135.688 38.472 Q 135.688 40.464 134.332 41.364 L 134.332 41.364 L 134.332 41.364 Q 132.976 42.264 130.708 42.264 L 130.708 42.264 L 130.708 42.264 Q 128.44 42.264 127.072 41.364 L 127.072 41.364 L 127.072 41.364 Q 125.704 40.464 125.704 38.472 L 125.704 38.472 L 125.704 30.936 L 125.704 30.936 Q 125.704 28.944 127.072 28.044 L 127.072 28.044 L 127.072 28.044 Q 128.44 27.144 130.708 27.144 L 130.708 27.144 L 130.708 27.144 Q 132.976 27.144 134.332 28.044 L 134.332 28.044 L 134.332 28.044 Q 135.688 28.944 135.688 30.936 L 135.688 30.936 L 135.688 31.704 L 135.688 31.704 Q 135.688 32.256 134.728 32.256 L 134.728 32.256 L 134.728 32.256 Q 133.768 32.256 133.768 31.704 L 133.768 31.704 L 133.768 30.696 L 133.768 30.696 Q 133.768 28.824 130.696 28.824 L 130.696 28.824 L 130.696 28.824 Q 127.624 28.824 127.624 30.696 Z  M 150.52 30.888 L 150.52 30.888 L 150.52 31.608 L 150.52 31.608 Q 150.52 33.648 149.68 34.416 L 149.68 34.416 L 149.68 34.416 Q 148.84 35.184 146.608 35.4 L 146.608 35.4 L 141.928 35.856 L 141.928 38.712 L 141.928 38.712 Q 141.928 40.584 145.048 40.584 L 145.048 40.584 L 145.048 40.584 Q 148.6 40.584 148.6 38.952 L 148.6 38.952 L 148.6 38.04 L 148.6 38.04 Q 148.6 37.488 149.56 37.488 L 149.56 37.488 L 149.56 37.488 Q 150.52 37.488 150.52 38.04 L 150.52 38.04 L 150.52 38.712 L 150.52 38.712 Q 150.52 42.264 145.24 42.264 L 145.24 42.264 L 145.24 42.264 Q 142.912 42.264 141.46 41.352 L 141.46 41.352 L 141.46 41.352 Q 140.008 40.44 140.008 38.472 L 140.008 38.472 L 140.008 30.936 L 140.008 30.936 Q 140.008 28.944 141.544 28.044 L 141.544 28.044 L 141.544 28.044 Q 143.08 27.144 145.552 27.144 L 145.552 27.144 L 145.552 27.144 Q 148.024 27.144 149.272 28.008 L 149.272 28.008 L 149.272 28.008 Q 150.52 28.872 150.52 30.888 Z  M 141.928 30.696 L 141.928 30.696 L 141.928 34.176 L 146.44 33.72 L 146.44 33.72 Q 147.808 33.576 148.204 33.144 L 148.204 33.144 L 148.204 33.144 Q 148.6 32.712 148.6 31.608 L 148.6 31.608 L 148.6 30.696 L 148.6 30.696 Q 148.6 28.824 145.264 28.824 L 145.264 28.824 L 145.264 28.824 Q 141.928 28.824 141.928 30.696 Z " fill="rgb(255,255,255)"/></g></svg>