<?xml version="1.0" encoding="UTF-8" standalone="no"?><!-- Generator: Gravit.io --><svg xmlns="http://www.w3.org/2000/svg" xmlns:xlink="http://www.w3.org/1999/xlink" style="isolation:isolate" viewBox="0 0 230 65" width="230pt" height="65pt"><defs><clipPath id="_clipPath_CNqxEykTO3orhb3caDcvFHfcpLm5R0cr"><rect width="230" height="65"/></clipPath></defs><g clip-path="url(#_clipPath_CNqxEykTO3orhb3caDcvFHfcpLm5R0cr)"><clipPath id="_clipPath_okypNWcfcOkMdyGvH04r4vVdoV1BZKre"><rect x="0" y="0" width="230" height="65" transform="matrix(1,0,0,1,0,0)" fill="rgb(255,255,255)"/></clipPath><g clip-path="url(#_clipPath_okypNWcfcOkMdyGvH04r4vVdoV1BZKre)"><g><clipPath id="_clipPath_rKoCeFh39Kpy5JYKgTTRmB8QzzJ1LVHp"><rect x="0" y="0" width="230" height="65" transform="matrix(1,0,0,1,0,0)" fill="rgb(255,255,255)"/></clipPath><g clip-path="url(#_clipPath_rKoCeFh39Kpy5JYKgTTRmB8QzzJ1LVHp)"><g><g><g><rect x="4.25" y="8.5" width="217" height="53" transform="matrix(1,0,0,1,0,0)" fill="rgb(170,0,0)"/><rect x="8.75" y="3.5" width="217" height="53" transform="matrix(1,0,0,1,0,0)" fill="none" vector-effect="non-scaling-stroke" stroke-width="3" stroke="rgb(0,0,0)" stroke-opacity="10000" stroke-linejoin="miter" stroke-linecap="square" stroke-miterlimit="2"/></g></g></g></g></g></g><path d=" M 131.664 37.712 L 133.224 27.92 L 133.224 27.92 Q 133.296 27.392 134.124 27.392 L 134.124 27.392 L 134.124 27.392 Q 134.952 27.392 135.048 27.92 L 135.048 27.92 L 136.632 37.712 L 136.632 37.712 Q 136.776 38.72 137.148 39.152 L 137.148 39.152 L 137.148 39.152 Q 137.52 39.584 138.384 39.584 L 138.384 39.584 L 138.384 39.584 Q 139.248 39.584 139.548 39.176 L 139.548 39.176 L 139.548 39.176 Q 139.848 38.768 140.04 37.712 L 140.04 37.712 L 141.84 26.936 L 141.84 26.936 Q 141.936 26.384 142.848 26.384 L 142.848 26.384 L 142.848 26.384 Q 143.76 26.384 143.76 26.816 L 143.76 26.816 L 141.912 37.976 L 141.912 37.976 Q 141.624 39.728 140.892 40.496 L 140.892 40.496 L 140.892 40.496 Q 140.16 41.264 138.372 41.264 L 138.372 41.264 L 138.372 41.264 Q 136.584 41.264 135.828 40.496 L 135.828 40.496 L 135.828 40.496 Q 135.072 39.728 134.856 37.976 L 134.856 37.976 L 134.256 33.008 L 134.016 33.008 L 133.44 37.976 L 133.44 37.976 Q 133.224 39.728 132.468 40.496 L 132.468 40.496 L 132.468 40.496 Q 131.712 41.264 129.924 41.264 L 129.924 41.264 L 129.924 41.264 Q 128.136 41.264 127.404 40.496 L 127.404 40.496 L 127.404 40.496 Q 126.672 39.728 126.384 37.976 L 126.384 37.976 L 124.536 26.816 L 124.536 26.816 Q 124.536 26.384 125.448 26.384 L 125.448 26.384 L 125.448 26.384 Q 126.36 26.384 126.456 26.936 L 126.456 26.936 L 128.256 37.712 L 128.256 37.712 Q 128.448 38.768 128.748 39.176 L 128.748 39.176 L 128.748 39.176 Q 129.048 39.584 129.912 39.584 L 129.912 39.584 L 129.912 39.584 Q 130.776 39.584 131.148 39.152 L 131.148 39.152 L 131.148 39.152 Q 131.52 38.72 131.664 37.712 L 131.664 37.712 L 131.664 37.712 Z  M 154.248 37.712 L 155.808 27.92 L 155.808 27.92 Q 155.88 27.392 156.708 27.392 L 156.708 27.392 L 156.708 27.392 Q 157.536 27.392 157.632 27.92 L 157.632 27.92 L 159.216 37.712 L 159.216 37.712 Q 159.36 38.72 159.732 39.152 L 159.732 39.152 L 159.732 39.152 Q 160.104 39.584 160.968 39.584 L 160.968 39.584 L 160.968 39.584 Q 161.832 39.584 162.132 39.176 L 162.132 39.176 L 162.132 39.176 Q 162.432 38.768 162.624 37.712 L 162.624 37.712 L 164.424 26.936 L 164.424 26.936 Q 164.52 26.384 165.432 26.384 L 165.432 26.384 L 165.432 26.384 Q 166.344 26.384 166.344 26.816 L 166.344 26.816 L 164.496 37.976 L 164.496 37.976 Q 164.208 39.728 163.476 40.496 L 163.476 40.496 L 163.476 40.496 Q 162.744 41.264 160.956 41.264 L 160.956 41.264 L 160.956 41.264 Q 159.168 41.264 158.412 40.496 L 158.412 40.496 L 158.412 40.496 Q 157.656 39.728 157.44 37.976 L 157.44 37.976 L 156.84 33.008 L 156.6 33.008 L 156.024 37.976 L 156.024 37.976 Q 155.808 39.728 155.052 40.496 L 155.052 40.496 L 155.052 40.496 Q 154.296 41.264 152.508 41.264 L 152.508 41.264 L 152.508 41.264 Q 150.72 41.264 149.988 40.496 L 149.988 40.496 L 149.988 40.496 Q 149.256 39.728 148.968 37.976 L 148.968 37.976 L 147.12 26.816 L 147.12 26.816 Q 147.12 26.384 148.032 26.384 L 148.032 26.384 L 148.032 26.384 Q 148.944 26.384 149.04 26.936 L 149.04 26.936 L 150.84 37.712 L 150.84 37.712 Q 151.032 38.768 151.332 39.176 L 151.332 39.176 L 151.332 39.176 Q 151.632 39.584 152.496 39.584 L 152.496 39.584 L 152.496 39.584 Q 153.36 39.584 153.732 39.152 L 153.732 39.152 L 153.732 39.152 Q 154.104 38.72 154.248 37.712 L 154.248 37.712 L 154.248 37.712 Z  M 176.832 37.712 L 178.392 27.92 L 178.392 27.92 Q 178.464 27.392 179.292 27.392 L 179.292 27.392 L 179.292 27.392 Q 180.12 27.392 180.216 27.92 L 180.216 27.92 L 181.8 37.712 L 181.8 37.712 Q 181.944 38.72 182.316 39.152 L 182.316 39.152 L 182.316 39.152 Q 182.688 39.584 183.552 39.584 L 183.552 39.584 L 183.552 39.584 Q 184.416 39.584 184.716 39.176 L 184.716 39.176 L 184.716 39.176 Q 185.016 38.768 185.208 37.712 L 185.208 37.712 L 187.008 26.936 L 187.008 26.936 Q 187.104 26.384 188.016 26.384 L 188.016 26.384 L 188.016 26.384 Q 188.928 26.384 188.928 26.816 L 188.928 26.816 L 187.08 37.976 L 187.08 37.976 Q 186.792 39.728 186.06 40.496 L 186.06 40.496 L 186.06 40.496 Q 185.328 41.264 183.54 41.264 L 183.54 41.264 L 183.54 41.264 Q 181.752 41.264 180.996 40.496 L 180.996 40.496 L 180.996 40.496 Q 180.24 39.728 180.024 37.976 L 180.024 37.976 L 179.424 33.008 L 179.184 33.008 L 178.608 37.976 L 178.608 37.976 Q 178.392 39.728 177.636 40.496 L 177.636 40.496 L 177.636 40.496 Q 176.88 41.264 175.092 41.264 L 175.092 41.264 L 175.092 41.264 Q 173.304 41.264 172.572 40.496 L 172.572 40.496 L 172.572 40.496 Q 171.84 39.728 171.552 37.976 L 171.552 37.976 L 169.704 26.816 L 169.704 26.816 Q 169.704 26.384 170.616 26.384 L 170.616 26.384 L 170.616 26.384 Q 171.528 26.384 171.624 26.936 L 171.624 26.936 L 173.424 37.712 L 173.424 37.712 Q 173.616 38.768 173.916 39.176 L 173.916 39.176 L 173.916 39.176 Q 174.216 39.584 175.08 39.584 L 175.08 39.584 L 175.08 39.584 Q 175.944 39.584 176.316 39.152 L 176.316 39.152 L 176.316 39.152 Q 176.688 38.72 176.832 37.712 L 176.832 37.712 L 176.832 37.712 Z  M 43.968 37.712 L 43.968 37.712 L 43.968 35 L 43.968 35 Q 43.968 34.208 43.344 33.848 L 43.344 33.848 L 43.344 33.848 Q 42.72 33.488 41.184 33.128 L 41.184 33.128 L 39.048 32.648 L 39.048 32.648 Q 37.584 32.312 36.84 31.904 L 36.84 31.904 L 36.84 31.904 Q 35.256 31.064 35.256 28.424 L 35.256 28.424 L 35.256 26.576 L 35.256 26.576 Q 35.256 24.584 36.684 23.684 L 36.684 23.684 L 36.684 23.684 Q 38.112 22.784 40.464 22.784 L 40.464 22.784 L 40.464 22.784 Q 42.816 22.784 44.232 23.684 L 44.232 23.684 L 44.232 23.684 Q 45.648 24.584 45.648 26.576 L 45.648 26.576 L 45.648 27.632 L 45.648 27.632 Q 45.648 28.184 44.688 28.184 L 44.688 28.184 L 44.688 28.184 Q 43.728 28.184 43.728 27.632 L 43.728 27.632 L 43.728 26.336 L 43.728 26.336 Q 43.728 24.464 40.452 24.464 L 40.452 24.464 L 40.452 24.464 Q 37.176 24.464 37.176 26.336 L 37.176 26.336 L 37.176 28.376 L 37.176 28.376 Q 37.176 29.696 37.572 30.188 L 37.572 30.188 L 37.572 30.188 Q 37.968 30.68 39.048 30.92 L 39.048 30.92 L 41.184 31.4 L 41.184 31.4 Q 43.488 31.904 43.812 32.084 L 43.812 32.084 L 43.812 32.084 Q 44.136 32.264 44.568 32.48 L 44.568 32.48 L 44.568 32.48 Q 45 32.696 45.156 32.924 L 45.156 32.924 L 45.156 32.924 Q 45.312 33.152 45.528 33.488 L 45.528 33.488 L 45.528 33.488 Q 45.888 34.04 45.888 35.192 L 45.888 35.192 L 45.888 37.472 L 45.888 37.472 Q 45.888 39.44 44.316 40.352 L 44.316 40.352 L 44.316 40.352 Q 42.744 41.264 40.356 41.264 L 40.356 41.264 L 40.356 41.264 Q 37.968 41.264 36.444 40.352 L 36.444 40.352 L 36.444 40.352 Q 34.92 39.44 34.92 37.472 L 34.92 37.472 L 34.92 36.416 L 34.92 36.416 Q 34.92 35.864 35.88 35.864 L 35.88 35.864 L 35.88 35.864 Q 36.84 35.864 36.84 36.416 L 36.84 36.416 L 36.84 37.712 L 36.84 37.712 Q 36.84 38.696 37.836 39.14 L 37.836 39.14 L 37.836 39.14 Q 38.832 39.584 40.356 39.584 L 40.356 39.584 L 40.356 39.584 Q 41.88 39.584 42.924 39.128 L 42.924 39.128 L 42.924 39.128 Q 43.968 38.672 43.968 37.712 Z  M 53.328 23.696 L 53.328 23.696 L 53.328 26.504 L 55.848 26.504 L 55.848 26.504 Q 56.328 26.504 56.328 27.344 L 56.328 27.344 L 56.328 27.344 Q 56.328 28.184 55.848 28.184 L 55.848 28.184 L 53.328 28.184 L 53.328 38.096 L 53.328 38.096 Q 53.328 38.864 53.688 39.524 L 53.688 39.524 L 53.688 39.524 Q 54.048 40.184 54.048 40.208 L 54.048 40.208 L 54.048 40.208 Q 54.048 40.496 53.592 40.82 L 53.592 40.82 L 53.592 40.82 Q 53.136 41.144 52.824 41.144 L 52.824 41.144 L 52.824 41.144 Q 52.32 41.144 51.864 40.268 L 51.864 40.268 L 51.864 40.268 Q 51.408 39.392 51.408 38.336 L 51.408 38.336 L 51.408 28.184 L 49.488 28.184 L 49.488 28.184 Q 49.008 28.184 49.008 27.344 L 49.008 27.344 L 49.008 27.344 Q 49.008 26.504 49.488 26.504 L 49.488 26.504 L 51.408 26.504 L 51.408 23.696 L 51.408 23.696 Q 51.408 23.144 52.368 23.144 L 52.368 23.144 L 52.368 23.144 Q 53.328 23.144 53.328 23.696 Z  M 66.072 30.896 L 66.072 30.896 L 66.072 29.696 L 66.072 29.696 Q 66.072 27.824 63.84 27.824 L 63.84 27.824 L 63.84 27.824 Q 61.608 27.824 61.608 29.696 L 61.608 29.696 L 61.608 40.712 L 61.608 40.712 Q 61.608 41.264 60.648 41.264 L 60.648 41.264 L 60.648 41.264 Q 59.688 41.264 59.688 40.712 L 59.688 40.712 L 59.688 29.936 L 59.688 29.936 Q 59.688 27.944 60.828 27.044 L 60.828 27.044 L 60.828 27.044 Q 61.968 26.144 63.84 26.144 L 63.84 26.144 L 63.84 26.144 Q 67.992 26.144 67.992 29.888 L 67.992 29.888 L 67.992 30.896 L 67.992 30.896 Q 67.992 31.448 67.032 31.448 L 67.032 31.448 L 67.032 31.448 Q 66.072 31.448 66.072 30.896 Z  M 79.344 37.712 L 79.344 37.712 L 79.344 29.696 L 79.344 29.696 Q 79.344 27.824 76.068 27.824 L 76.068 27.824 L 76.068 27.824 Q 72.792 27.824 72.792 29.696 L 72.792 29.696 L 72.792 37.712 L 72.792 37.712 Q 72.792 39.584 76.068 39.584 L 76.068 39.584 L 76.068 39.584 Q 79.344 39.584 79.344 37.712 Z  M 81.264 29.936 L 81.264 29.936 L 81.264 37.472 L 81.264 37.472 Q 81.264 39.464 79.848 40.364 L 79.848 40.364 L 79.848 40.364 Q 78.432 41.264 76.08 41.264 L 76.08 41.264 L 76.08 41.264 Q 73.728 41.264 72.3 40.364 L 72.3 40.364 L 72.3 40.364 Q 70.872 39.464 70.872 37.472 L 70.872 37.472 L 70.872 29.936 L 70.872 29.936 Q 70.872 27.944 72.288 27.044 L 72.288 27.044 L 72.288 27.044 Q 73.704 26.144 76.056 26.144 L 76.056 26.144 L 76.056 26.144 Q 78.408 26.144 79.836 27.044 L 79.836 27.044 L 79.836 27.044 Q 81.264 27.944 81.264 29.936 Z  M 96.696 29.936 L 96.696 29.936 L 96.696 40.472 L 96.696 40.472 Q 96.696 41.024 95.736 41.024 L 95.736 41.024 L 95.736 41.024 Q 94.776 41.024 94.776 40.472 L 94.776 40.472 L 94.776 29.696 L 94.776 29.696 Q 94.776 27.824 91.5 27.824 L 91.5 27.824 L 91.5 27.824 Q 88.224 27.824 88.224 29.696 L 88.224 29.696 L 88.224 40.472 L 88.224 40.472 Q 88.224 41.024 87.264 41.024 L 87.264 41.024 L 87.264 41.024 Q 86.304 41.024 86.304 40.472 L 86.304 40.472 L 86.304 29.936 L 86.304 29.936 Q 86.304 27.944 87.72 27.044 L 87.72 27.044 L 87.72 27.044 Q 89.136 26.144 91.488 26.144 L 91.488 26.144 L 91.488 26.144 Q 93.84 26.144 95.268 27.044 L 95.268 27.044 L 95.268 27.044 Q 96.696 27.944 96.696 29.936 Z  M 105.168 46.904 L 105.168 46.904 L 103.44 46.904 L 103.44 46.904 Q 102.96 46.904 102.96 46.064 L 102.96 46.064 L 102.96 46.064 Q 102.96 45.224 103.44 45.224 L 103.44 45.224 L 105.168 45.224 L 105.168 45.224 Q 106.512 45.224 107.016 44.828 L 107.016 44.828 L 107.016 44.828 Q 107.52 44.432 107.712 43.352 L 107.712 43.352 L 108.048 41.264 L 106.656 41.264 L 106.656 41.264 Q 104.76 41.264 103.968 40.496 L 103.968 40.496 L 103.968 40.496 Q 103.176 39.728 102.888 37.976 L 102.888 37.976 L 101.136 27.416 L 101.136 27.416 Q 101.04 26.864 101.04 26.816 L 101.04 26.816 L 101.04 26.816 Q 101.04 26.384 101.952 26.384 L 101.952 26.384 L 101.952 26.384 Q 102.864 26.384 102.96 26.936 L 102.96 26.936 L 104.76 37.712 L 104.76 37.712 Q 104.928 38.744 105.3 39.164 L 105.3 39.164 L 105.3 39.164 Q 105.672 39.584 106.656 39.584 L 106.656 39.584 L 108.336 39.584 L 110.448 26.936 L 110.448 26.936 Q 110.544 26.384 111.408 26.384 L 111.408 26.384 L 111.408 26.384 Q 112.272 26.384 112.272 26.816 L 112.272 26.816 L 112.272 26.816 Q 112.272 26.864 112.2 27.368 L 112.2 27.368 L 109.536 43.112 L 109.536 43.112 Q 109.152 45.392 108.312 46.148 L 108.312 46.148 L 108.312 46.148 Q 107.472 46.904 105.168 46.904 Z " fill="rgb(255,255,255)"/></g></svg>